<?xml version="1.0" encoding="UTF-8"?>
<svg xmlns="http://www.w3.org/2000/svg" fill="none" height="93" viewBox="0 0 347 93" width="347">
  <path d="m304.172 56.6282h-22.76v17.3465h22.76z" fill="#e8e7e7"></path>
  <path d="m104.605 35.2527h-28.3659v12.5343h28.3659z" fill="#e8e7e7"></path>
  <path d="m37.1105 73.5271h-22.6475v10.6318h22.6475z" fill="#e8e7e7"></path>
  <path d="m238.808 30.8881-18.836 7.8339-2.466-2.9097 19.732-8.1697z" fill="#e8e7e7"></path>
  <path d="m254.392 35.5885-2.018-3.3574-7.288 3.805 1.458 3.5813 7.96-3.917" fill="#cd2c2c"></path>
  <path d="m292.287 29.7689 3.139 6.1553-3.475 2.0144-4.148-7.722z" fill="#cd2c2c"></path>
  <g stroke="#cd2c2c" stroke-miterlimit="10" stroke-width="1.2">
    <path d="m228.269 50.6967-17.715-24.8447c-2.354-3.2455-7.511-1.6787-7.511 2.3501v6.8267"></path>
    <path d="m278.161 76.7725v-23.5018h29.15v23.7257h-48.21l-10.651-26.5235h-31.393l-8.857 17.5704h-45.071"></path>
    <path d="m278.161 53.2707-6.727-2.7978h-23.993"></path>
    <path d="m307.311 60.5452h39.016v5.3718l-39.016 10.296"></path>
    <path d="m235.556 25.2925h38.905v4.4765"></path>
    <path d="m227.82 49.8014 19.957-8.8412-3.7-6.379-20.741 9.5126"></path>
    <path d="m297.893 39.5054-1.906-4.0288-5.045 2.2382 6.054 12.7582h6.503"></path>
    <path d="m317.401 6.82674v33.12636h26.684v-29.769c0-1.90248-1.457-3.35736-3.363-3.35736zm0 0v-6.155231h-9.866v11.750891 4.1408h-7.287v31.3357h7.848"></path>
    <path d="m343.749 17.7942h-26.236"></path>
    <path d="m306.19 47.899h35.989v-7.9459"></path>
    <path d="m146.2 64.7979v12.1985"></path>
    <path d="m203.043 35.0288v27.195h-10.091-31.505"></path>
    <path d="m189.028 12.1985h-33.41v34.3574h33.41z"></path>
    <path d="m185.553 48.7942-1.794 12.87"></path>
    <path d="m159.542 48.7942 2.466 13.9892"></path>
  </g>
  <path d="m185.216 16.4513h-25.787v26.5235h25.787z" fill="#e8e7e7"></path>
  <path d="m216.497 29.3213 4.148-4.0289h14.911l3.252 5.5956c.672 1.2311 2.354 1.7907 3.7 1.2311l7.736-3.4693 5.157 8.5054c.897 1.4549 2.803 1.9025 4.26 1.0072l14.127-8.5054h21.302l-6.727-17.9061h-92.496v12.87l4.933 4.9242" stroke="#cd2c2c" stroke-miterlimit="10" stroke-width="1.2"></path>
  <path d="m63.1214 80.6895h-48.9948l-13.453962-10.0722v-3.3574l4.484652-2.2382v-16.787l5.60581-3.3574 6.727-27.9784h34.756v40.8484h10.6511v-11.1913h-4.4847v-17.9062l63.9065 4.4766v12.3104l11.211 11.1914" stroke="#cd2c2c" stroke-miterlimit="10" stroke-width="1.2"></path>
  <path d="m107.183 76.3249v-11.5271l-11.5477-13.2058h-21.7505l-11.8844 13.2058v11.5271" stroke="#cd2c2c" stroke-miterlimit="10" stroke-width="1.2"></path>
  <path d="m133.53 66.3646v14.3249h-2.242-25.226" stroke="#cd2c2c" stroke-miterlimit="10" stroke-width="1.2"></path>
  <path d="m213.694 76.9963h-67.494" stroke="#cd2c2c" stroke-miterlimit="10" stroke-width="1.2"></path>
  <path d="m84.872 92.3286c10.2025 0 18.499-8.1697 18.499-18.3538 0-10.0722-8.2965-18.3538-18.499-18.3538-10.2026 0-18.4992 8.1696-18.4992 18.3538 0 10.1841 8.2966 18.3538 18.4992 18.3538z" stroke="#cd2c2c" stroke-miterlimit="10" stroke-width="1.2"></path>
  <path d="m84.872 82.4802c4.7089 0 8.5209-3.8051 8.5209-8.5054 0-4.7004-3.812-8.5054-8.5209-8.5054s-8.5208 3.805-8.5208 8.5054c0 4.7003 3.8119 8.5054 8.5208 8.5054z" fill="#cd2c2c"></path>
  <path d="m232.641 92.3286c10.203 0 18.5-8.1697 18.5-18.3538 0-10.0722-8.297-18.3538-18.5-18.3538-10.202 0-18.499 8.1696-18.499 18.3538 0 10.1841 8.297 18.3538 18.499 18.3538z" stroke="#cd2c2c" stroke-miterlimit="10" stroke-width="1.2"></path>
  <path d="m232.641 82.4802c4.709 0 8.521-3.8051 8.521-8.5054 0-4.7004-3.812-8.5054-8.521-8.5054-4.708 0-8.52 3.805-8.52 8.5054 0 4.7003 3.812 8.5054 8.52 8.5054z" fill="#cd2c2c"></path>
  <path d="m207.527 31.0001c1.121 0 2.018-.8953 2.018-2.0145 0-1.1191-.897-2.0144-2.018-2.0144s-2.018.8953-2.018 2.0144c-.112 1.1192.785 2.0145 2.018 2.0145z" fill="#cd2c2c"></path>
  <path d="m48.7706 20.9279v21.8231l-11.548 23.3899h-22.6475v-22.4946l6.1664-22.7184z" fill="#e8e7e7"></path>
  <path d="m45.6314 26.4116v13.2058c0 1.7906-1.4575 3.1336-3.1393 3.1336h-19.8445c-2.0181 0-3.4757-1.7906-3.1393-3.8051l2.8029-13.2058c.3364-1.4548 1.5696-2.574 3.1393-2.574h17.0416c1.7939 0 3.1393 1.4549 3.1393 3.2455z" fill="#cd2c2c"></path>
  <path d="m101.802 38.722h-22.4236" stroke="#cd2c2c" stroke-miterlimit="10" stroke-width="1.2"></path>
  <path d="m101.802 41.7437h-22.4236" stroke="#cd2c2c" stroke-miterlimit="10" stroke-width="1.2"></path>
  <path d="m101.802 44.7654h-22.4236" stroke="#cd2c2c" stroke-miterlimit="10" stroke-width="1.2"></path>
  <path d="m333.546 39.5055v-29.3213c0-1.90254-1.457-3.35742-3.363-3.35742h-2.915" stroke="#cd2c2c" stroke-miterlimit="10" stroke-width="1.2"></path>
  <path d="m14.5751 66.3646h38.1196" stroke="#cd2c2c" stroke-miterlimit="10" stroke-width="1.2"></path>
  <path d="m60.8793 80.6896h6.5027" stroke="#cd2c2c" stroke-miterlimit="10" stroke-width="1.2"></path>
  <path d="m102.138 80.6896h4.148" stroke="#cd2c2c" stroke-miterlimit="10" stroke-width="1.2"></path>
  <path d="m251.141 76.9963h7.96" stroke="#cd2c2c" stroke-miterlimit="10" stroke-width="1.2"></path>
  <path d="m119.18 59.9856h-7.064v8.9531h7.064z" fill="#e8e7e7"></path>
  <path d="m119.18 71.7365h-7.064v4.4765h7.064z" fill="#e8e7e7"></path>
  <path d="m153.039 57.0758 6.951 11.0794h-11.436l-3.027-5.0361-18.163.1119v-6.1552z" fill="#fff" stroke="#cd2c2c" stroke-miterlimit="10" stroke-width="1.2"></path>
  <path d="m151.469 64.9098c1.239 0 2.242-1.0021 2.242-2.2383s-1.003-2.2383-2.242-2.2383c-1.238 0-2.242 1.0021-2.242 2.2383s1.004 2.2383 2.242 2.2383z" fill="#cd2c2c"></path>
  <path d="m271.546 68.0434c1.61 0 2.915-1.3028 2.915-2.9098s-1.305-2.9097-2.915-2.9097-2.915 1.3027-2.915 2.9097 1.305 2.9098 2.915 2.9098z" fill="#e8e7e7"></path>
  <path d="m279.506 11.8628 1.682 4.8123h-63.682" stroke="#cd2c2c" stroke-miterlimit="10" stroke-width="1.2"></path>
  <path d="m119.74 18.8014h-8.745v5.4837h8.745z" stroke="#cd2c2c" stroke-miterlimit="10" stroke-width="1.2"></path>
  <path d="m112.677 26.2997v6.8267" stroke="#cd2c2c" stroke-miterlimit="10" stroke-width="1.2"></path>
  <path d="m118.395 26.2997v6.8267" stroke="#cd2c2c" stroke-miterlimit="10" stroke-width="1.2"></path>
  <path d="m308.208 20.2563v28.3141" stroke="#cd2c2c" stroke-miterlimit="10" stroke-width="1.2"></path>
  <path d="m58.5247 19.4729-2.5787-2.574h-42.4921l-3.2514 3.1336" stroke="#cd2c2c" stroke-miterlimit="10" stroke-width="1.2"></path>
  <path d="m181.853 48.6823-1.906 12.9819" stroke="#cd2c2c" stroke-miterlimit="10" stroke-width="1.2"></path>
  <path d="m163.69 48.5704 1.794 13.0939" stroke="#cd2c2c" stroke-miterlimit="10" stroke-width="1.2"></path>
</svg>
