<?xml version="1.0" encoding="UTF-8"?>
<svg xmlns="http://www.w3.org/2000/svg" width="73" height="61" viewBox="0 0 73 61" fill="none">
  <path d="M50.7622 0.620117H0V36.4164H50.7622V0.620117Z" fill="#BCBDBD"></path>
  <path d="M4.83859 28.838L18.7109 13.0113L31.0612 23.3309L44.6613 8.19873" stroke="white" stroke-width="3" stroke-miterlimit="10"></path>
  <path d="M44.3266 45.9796C51.8856 45.9796 58.0133 39.8377 58.0133 32.2614C58.0133 24.6851 51.8856 18.5432 44.3266 18.5432C36.7676 18.5432 30.6399 24.6851 30.6399 32.2614C30.6399 39.8377 36.7676 45.9796 44.3266 45.9796Z" fill="#969697"></path>
  <path d="M30.6404 32.5591C30.5662 28.9497 31.9027 25.3155 34.6499 22.5619C39.9959 17.2036 48.6708 17.2036 54.0168 22.5619C59.0905 27.6473 59.3504 35.7343 54.784 41.1298" stroke="#CD2C2C"></path>
  <path d="M44.5001 43C50.2991 43 55.0001 38.299 55.0001 32.5C55.0001 26.701 50.2991 22 44.5001 22C38.7011 22 34.0001 26.701 34.0001 32.5C34.0001 38.299 38.7011 43 44.5001 43Z" fill="white"></path>
  <path d="M56.1939 41.0002L53.0001 44.2014L68.3044 59.5409L71.4983 56.3397L56.1939 41.0002Z" fill="#969697"></path>
  <path d="M0 0.620117H50.7622V17.2531" stroke="#CD2C2C"></path>
</svg>
