<?xml version="1.0" encoding="UTF-8"?>
<svg xmlns="http://www.w3.org/2000/svg" width="253" height="224" viewBox="0 0 253 224" fill="none">
  <g clip-path="url(#clip0)">
    <path d="M157.339 115.9H169.426V121.578H157.339V115.9Z" fill="#E8E7E7"></path>
    <path d="M91.996 86.8029L79.3274 61.2837L72.3807 64.6688L103.439 127.001L110.324 123.616" stroke="#CD2C2C" stroke-width="1.2" stroke-miterlimit="10"></path>
    <path d="M153.404 119.6V112.838L143.434 90.7651H99.5127L101.459 138.849L151.799 140.003L153.404 119.6Z" fill="#E8E7E7"></path>
    <path d="M151.803 116.923C151.803 107.414 144.019 99.697 134.436 99.697C124.853 99.697 117.077 107.414 117.077 116.923" stroke="#CD2C2C" stroke-width="3" stroke-miterlimit="10"></path>
    <path d="M132.836 116.923L128.975 37.5494C128.913 35.8876 127.944 34.3566 126.533 33.4642L93.7992 13.4919L115.795 116.915H132.836V116.923Z" fill="white" stroke="#CD2C2C" stroke-width="1.2" stroke-miterlimit="10"></path>
    <path d="M250 121.577H154.629V172.046H244.852C247.682 172.046 250 169.745 250 166.945V134.856" fill="white"></path>
    <path d="M250 121.577H154.629V172.046H244.852C247.682 172.046 250 169.745 250 166.945V134.856" stroke="#CD2C2C" stroke-width="1.2" stroke-miterlimit="10"></path>
    <path d="M239.643 106.46H205.754V121.577H239.643V106.46Z" stroke="#CD2C2C" stroke-width="1.2" stroke-miterlimit="10"></path>
    <path d="M159.783 121.577H190.268V112.96C190.268 110.152 187.949 107.86 185.12 107.86H164.931C162.101 107.86 159.783 110.16 159.783 112.96V121.577V121.577Z" stroke="#CD2C2C" stroke-width="1.2" stroke-miterlimit="10"></path>
    <path d="M234.369 106.46V96.1274" stroke="#CD2C2C" stroke-width="1.2" stroke-miterlimit="10"></path>
    <path d="M222.674 106.46V96.1274" stroke="#CD2C2C" stroke-width="1.2" stroke-miterlimit="10"></path>
    <path d="M211.025 106.46V96.1274" stroke="#CD2C2C" stroke-width="1.2" stroke-miterlimit="10"></path>
    <path d="M234.369 131.086H211.025" stroke="#CD2C2C" stroke-width="1.2" stroke-miterlimit="10"></path>
    <path d="M234.369 141.48H211.025" stroke="#CD2C2C" stroke-width="1.2" stroke-miterlimit="10"></path>
    <path d="M234.369 151.882H211.025" stroke="#CD2C2C" stroke-width="1.2" stroke-miterlimit="10"></path>
    <path d="M144.414 144.673H126.024" stroke="#CD2C2C" stroke-width="1.2" stroke-miterlimit="10"></path>
    <path d="M195.533 121.577V166.683" stroke="#CD2C2C" stroke-width="1.2" stroke-miterlimit="10"></path>
    <path d="M186.781 166.684V147.796H154.629V172.108H186.781" stroke="#CD2C2C" stroke-width="1.2" stroke-miterlimit="10"></path>
    <path d="M160.871 155.967H180.486V166.684H160.871V155.967Z" fill="#E8E7E7"></path>
    <path d="M165.759 129.871H175.598V140.588H165.759V129.871Z" fill="#CD2C2C"></path>
    <path d="M180.486 152.521H160.871" stroke="#CD2C2C" stroke-width="1.2" stroke-miterlimit="10"></path>
    <path d="M140.357 116.922L139.97 42.788C139.97 42.1494 139.846 41.5109 139.582 40.8723L133.667 26.4547C133.279 25.4315 132.511 24.6006 131.542 24.0313L116.943 15.23L111.345 24.2929" stroke="#CD2C2C" stroke-width="1.2" stroke-miterlimit="10"></path>
    <path d="M116.017 172.577V178.932H163.373V172.108H103.248C96.6734 172.108 91.347 166.823 91.347 160.299V139.996H151.798" stroke="#CD2C2C" stroke-width="1.2" stroke-miterlimit="10"></path>
    <path d="M159.775 185.825V178.932" stroke="#CD2C2C" stroke-width="1.2" stroke-miterlimit="10"></path>
    <path d="M119.714 222H220.295C225.311 222 229.428 217.915 229.428 212.945C229.428 197.95 217.209 185.833 202.098 185.833H136.375" stroke="#CD2C2C" stroke-width="1.2" stroke-miterlimit="10"></path>
    <path d="M123.447 185.825H77.0839C77.0839 185.825 61.539 185.21 52.1965 201.712C50.6537 205.159 49.7543 208.921 49.7543 212.945C49.7543 217.922 53.8712 222 58.8874 222H119.718" stroke="#CD2C2C" stroke-width="1.2" stroke-miterlimit="10"></path>
    <path d="M72.5719 214.214H206.591C211.608 214.214 215.725 210.198 215.725 205.151C215.725 200.173 211.67 196.096 206.591 196.096H72.5719C67.5556 196.096 63.4388 200.112 63.4388 205.151C63.4465 210.198 67.5556 214.214 72.5719 214.214Z" fill="#E8E7E7"></path>
    <path d="M205.754 211.475C202.234 211.475 199.389 208.644 199.389 205.159C199.389 201.673 202.242 198.842 205.754 198.842C209.266 198.842 212.119 201.673 212.119 205.159C212.119 208.644 209.274 211.475 205.754 211.475Z" fill="white"></path>
    <path d="M72.3886 211.475C68.8687 211.475 66.0234 208.644 66.0234 205.159C66.0234 201.673 68.8765 198.842 72.3886 198.842C75.9085 198.842 78.7539 201.673 78.7539 205.159C78.7539 208.644 75.9008 211.475 72.3886 211.475Z" fill="white"></path>
    <path d="M109.602 139.995L102.538 54.7749C102.538 54.6441 102.476 54.5825 102.345 54.5825L94.8164 55.1595L100.67 131.34L101.065 139.234" fill="white"></path>
    <path d="M109.602 139.995L102.538 54.7749C102.538 54.6441 102.476 54.5825 102.345 54.5825L94.8164 55.1595L100.67 131.34L101.065 139.234" stroke="#CD2C2C" stroke-width="1.2" stroke-miterlimit="10"></path>
    <path d="M114.537 39.6491L122.026 38.9182L124.941 68.2457L117.452 68.9766L114.537 39.6491Z" fill="#E8E7E7"></path>
    <path d="M113.477 62.1146L111.864 46.166" stroke="#CD2C2C" stroke-width="1.2" stroke-miterlimit="10"></path>
    <path d="M108.459 21.6776L113.15 13.0609C115.143 9.42187 113.794 4.89811 110.126 2.91319C106.459 0.935968 101.893 2.27463 99.9 5.91365L97.8687 9.60652" stroke="#CD2C2C" stroke-width="1.2" stroke-miterlimit="10"></path>
    <path d="M88.5144 18.6005C86.6304 18.6005 85.1031 17.0848 85.1031 15.223C85.1031 13.3535 86.6304 11.8379 88.5144 11.8379C90.3984 11.8379 91.9258 13.3535 91.9258 15.223C91.9258 17.0925 90.3984 18.6005 88.5144 18.6005Z" stroke="#CD2C2C" stroke-width="1.2" stroke-miterlimit="10"></path>
    <path d="M93.5353 36.6563C92.2561 36.6563 91.2172 35.6254 91.2172 34.356C91.2172 33.0866 92.2561 32.0557 93.5353 32.0557C94.8146 32.0557 95.8535 33.0866 95.8535 34.356C95.8535 35.6331 94.8146 36.6563 93.5353 36.6563Z" fill="#CD2C2C"></path>
    <path d="M97.1389 51.267C95.8596 51.267 94.8207 50.236 94.8207 48.9666C94.8207 47.6972 95.8596 46.6663 97.1389 46.6663C98.4181 46.6663 99.457 47.6972 99.457 48.9666C99.457 50.236 98.4181 51.267 97.1389 51.267Z" fill="#CD2C2C"></path>
    <path d="M31.6937 109.214L31.6782 115.815L24.6539 114.23L24.4058 104.867L25.0881 128.147L0.00686646 143.288L0.650383 143.734C7.07768 148.32 14.3811 151.574 22.1962 152.866C35.1981 155.051 48.766 152.274 59.8063 144.365C60.2483 144.073 60.6204 143.796 61.0391 143.442L51.3477 109.921L24.336 104.89" fill="#E8E7E7"></path>
    <path d="M72.3281 126.408L69.8626 88.3487" stroke="#CD2C2C" stroke-width="1.2" stroke-miterlimit="10"></path>
    <path d="M69.8555 88.341L68.0955 62.5294L60.4045 63.0294" stroke="#CD2C2C" stroke-width="1.2" stroke-miterlimit="10"></path>
    <path d="M54.4818 52.6122L64.2585 56.2512L64.8555 58.9593L55.8541 73.6692L54.4818 52.6122Z" fill="white" stroke="#CD2C2C" stroke-width="1.2" stroke-miterlimit="10"></path>
    <path d="M53.1805 32.2864L58.3751 112.799L44.7607 102.874C44.7607 102.874 32.7047 85.5175 32.7434 65.1067C32.8054 42.3725 42.1867 26.0931 42.1867 26.0931L43.9854 30.9477C45.1871 34.179 49.2497 35.3484 51.9478 33.2096L81.2079 10.6908L78.0679 3.88208" fill="white"></path>
    <path d="M53.1792 32.2864L58.3738 112.799L44.7594 102.874C44.7594 102.874 32.7033 85.5176 32.7421 65.1068C32.8041 42.3726 42.1853 26.0932 42.1853 26.0932L43.9841 30.9478C45.1858 34.179 49.2484 35.3484 51.9465 33.2097L81.191 9.50609C86.5097 5.19775 94.2705 5.69782 98.9766 10.6524C98.9766 10.6524 100.938 13.699 99.3177 16.8687" stroke="#CD2C2C" stroke-width="1.2" stroke-miterlimit="10"></path>
    <path d="M29.2375 89.6488L71.5382 114.66L72.957 138.079L60.9398 143.349L55.815 134.886C50.4964 125.539 43.2085 117.522 34.5716 111.229L33.711 116.299L24.5701 114.199L23.9344 90.4951L29.2375 89.6488Z" fill="white"></path>
    <path d="M33.7867 116.337L24.6458 114.237L24.0101 90.5336L29.2279 89.6488L71.5286 114.66L72.9707 138.133C72.9707 138.133 37.7718 173.7 -0.00117668 143.295" stroke="#CD2C2C" stroke-width="1.2" stroke-miterlimit="10"></path>
    <path d="M4.76374 140.402C10.2607 143.764 16.4166 146.142 22.7741 147.219C35.1248 149.304 48.0492 146.826 58.7949 139.779" stroke="#CD2C2C" stroke-width="1.2" stroke-miterlimit="10"></path>
    <path d="M32.8231 109.483C33.4356 111.137 32.5827 112.968 30.9158 113.576C29.2489 114.183 27.4037 113.337 26.7912 111.683C26.1787 110.029 27.0315 108.198 28.6984 107.59C30.3653 106.982 32.2106 107.829 32.8231 109.483Z" fill="#CD2C2C"></path>
    <path d="M49.792 105.736C50.234 106.928 49.6214 108.244 48.4197 108.682C47.218 109.121 45.8922 108.513 45.4503 107.321C45.0084 106.128 45.6208 104.813 46.8226 104.374C48.0243 103.935 49.3501 104.543 49.792 105.736Z" stroke="#CD2C2C" stroke-width="1.2" stroke-miterlimit="10"></path>
    <path d="M36.1532 97.5887C36.3626 98.1503 36.068 98.7735 35.502 98.9812C34.936 99.1889 34.308 98.8966 34.0987 98.3349C33.8893 97.7733 34.184 97.1501 34.7499 96.9424C35.3159 96.7424 35.9439 97.027 36.1532 97.5887Z" stroke="#CD2C2C" stroke-width="1.2" stroke-miterlimit="10"></path>
    <path d="M64.2578 56.2517L95.8516 23.2083" stroke="#CD2C2C" stroke-width="1.2" stroke-miterlimit="10"></path>
    <path d="M60.747 26.4619L62.6543 55.6201" stroke="#CD2C2C" stroke-width="1.2" stroke-miterlimit="10"></path>
    <path d="M7.90625 143.534L5.92923 145.957" stroke="#CD2C2C" stroke-width="1.2" stroke-miterlimit="10"></path>
    <path d="M31.1738 149.181L31.0802 152.82" stroke="#CD2C2C" stroke-width="1.2" stroke-miterlimit="10"></path>
    <path d="M56.1459 142.442L57.6035 144.903" stroke="#CD2C2C" stroke-width="1.2" stroke-miterlimit="10"></path>
    <path d="M18.5762 147.727L17.8396 150.92" stroke="#CD2C2C" stroke-width="1.2" stroke-miterlimit="10"></path>
    <path d="M43.7764 147.504L44.6758 150.85" stroke="#CD2C2C" stroke-width="1.2" stroke-miterlimit="10"></path>
    <path d="M73.7673 62.3298L77.0469 60.6527L71.612 50.1819L68.8674 52.8823L73.7673 62.3298Z" fill="#E8E7E7"></path>
    <path d="M119.092 178.932V185.818" stroke="#CD2C2C" stroke-width="1.2" stroke-miterlimit="10"></path>
    <path d="M188.455 199.7V210.412" stroke="#CD2C2C"></path>
    <path d="M169.582 199.7V210.412" stroke="#CD2C2C"></path>
    <path d="M150.705 199.7V210.412" stroke="#CD2C2C"></path>
    <path d="M131.83 199.7V210.412" stroke="#CD2C2C"></path>
    <path d="M112.959 199.7V210.412" stroke="#CD2C2C"></path>
    <path d="M94.084 199.7V210.412" stroke="#CD2C2C"></path>
  </g>
  <defs>
    <clipPath id="clip0">
      <rect width="253" height="224" fill="white" transform="matrix(-1 0 0 1 253 0)"></rect>
    </clipPath>
  </defs>
</svg>
