<?xml version="1.0" encoding="UTF-8"?>
<svg xmlns="http://www.w3.org/2000/svg" width="248" height="83" viewBox="0 0 248 83" fill="none">
  <path d="M99.3914 57.7661H61.4512V75.3544H99.3914V57.7661Z" fill="#E8E7E7"></path>
  <path d="M14.7701 29.6039H7.92785C7.82231 29.6039 7.75195 29.5341 7.75195 29.4295V16.0463C7.75195 15.9416 7.82231 15.8718 7.92785 15.8718H14.7525C14.8581 15.8718 14.9284 15.9416 14.9284 16.0463V29.4295C14.946 29.5167 14.8581 29.6039 14.7701 29.6039Z" fill="#CD2C2C"></path>
  <path d="M41.1478 81.9497C49.0261 81.9497 55.4128 75.6141 55.4128 67.7988C55.4128 59.9835 49.0261 53.6479 41.1478 53.6479C33.2695 53.6479 26.8828 59.9835 26.8828 67.7988C26.8828 75.6141 33.2695 81.9497 41.1478 81.9497Z" stroke="#CD2C2C" stroke-width="1.2" stroke-miterlimit="10"></path>
  <path d="M23.4199 64.3788C23.4199 54.6599 31.3527 46.7905 41.15 46.7905C50.9473 46.7905 58.8801 54.6599 58.8801 64.3788C58.8801 64.3788 58.6514 68.6014 63.1016 68.6014C67.5517 68.6014 69.9614 69.6658 71.5796 66.1935C74.9392 66.1935 80.8316 66.1935 80.8316 66.1935" stroke="#CD2C2C" stroke-width="1.2" stroke-miterlimit="10"></path>
  <path d="M41.1507 74.3419C44.7936 74.3419 47.7467 71.4124 47.7467 67.7986C47.7467 64.1849 44.7936 61.2554 41.1507 61.2554C37.5078 61.2554 34.5547 64.1849 34.5547 67.7986C34.5547 71.4124 37.5078 74.3419 41.1507 74.3419Z" fill="#CD2C2C"></path>
  <path d="M142.656 81.9497C150.534 81.9497 156.921 75.6141 156.921 67.7988C156.921 59.9835 150.534 53.6479 142.656 53.6479C134.777 53.6479 128.391 59.9835 128.391 67.7988C128.391 75.6141 134.777 81.9497 142.656 81.9497Z" stroke="#CD2C2C" stroke-width="1.2" stroke-miterlimit="10"></path>
  <path d="M142.66 74.3419C146.303 74.3419 149.256 71.4124 149.256 67.7986C149.256 64.1849 146.303 61.2554 142.66 61.2554C139.018 61.2554 136.064 64.1849 136.064 67.7986C136.064 71.4124 139.018 74.3419 142.66 74.3419Z" fill="#CD2C2C"></path>
  <path d="M178.751 81.9497C186.63 81.9497 193.016 75.6141 193.016 67.7988C193.016 59.9835 186.63 53.6479 178.751 53.6479C170.873 53.6479 164.486 59.9835 164.486 67.7988C164.486 75.6141 170.873 81.9497 178.751 81.9497Z" stroke="#CD2C2C" stroke-width="1.2" stroke-miterlimit="10"></path>
  <path d="M178.752 74.3419C182.395 74.3419 185.348 71.4124 185.348 67.7986C185.348 64.1849 182.395 61.2554 178.752 61.2554C175.109 61.2554 172.156 64.1849 172.156 67.7986C172.156 71.4124 175.109 74.3419 178.752 74.3419Z" fill="#CD2C2C"></path>
  <path d="M57.9344 58.4465V6.27493L53.625 2H22.7557C14.4711 2 7.75195 8.6654 7.75195 16.8663V53.2817" stroke="#CD2C2C" stroke-width="1.2" stroke-miterlimit="10"></path>
  <path d="M24.0017 66.1935H3V57.696C3 55.2532 4.9876 53.2815 7.45011 53.2815H26.8864" stroke="#CD2C2C" stroke-width="1.2" stroke-miterlimit="10"></path>
  <path d="M48.8694 29.6037H15.3792C15.1329 29.6037 14.9219 29.4117 14.9219 29.15V11.3523C14.9219 11.1081 15.1154 10.8987 15.3792 10.8987H48.8518C49.098 10.8987 49.3091 11.0906 49.3091 11.3523V29.1675C49.3091 29.3943 49.1156 29.6037 48.8694 29.6037Z" fill="#E8E7E7"></path>
  <path d="M57.6055 11.71C60.455 11.71 64.0378 14.2665 64.0378 17.1106V38.7295" stroke="#CD2C2C" stroke-width="1.2" stroke-miterlimit="10"></path>
  <path d="M3 59.9646H8.64619" stroke="#CD2C2C" stroke-width="1.2" stroke-miterlimit="10"></path>
  <path d="M13.1484 65.7575V57.0332" stroke="#CD2C2C" stroke-width="1.2" stroke-miterlimit="10"></path>
  <path d="M224.346 53.6479H247.001V46.7905H233.686" stroke="#CD2C2C" stroke-width="1.2" stroke-miterlimit="10"></path>
  <path d="M205.683 46.7905H68.8906V53.6479H200.16" stroke="#CD2C2C" stroke-width="1.2" stroke-miterlimit="10"></path>
  <path d="M76.7031 46.7906V10.4101C76.7031 6.85058 79.623 3.9541 83.2112 3.9541H235.412C238.842 3.9541 241.621 6.71099 241.621 10.1135V43.7371" stroke="#CD2C2C" stroke-width="1.2" stroke-miterlimit="10"></path>
  <path d="M76.7031 29.6037H221.657V8.59546" stroke="#CD2C2C" stroke-width="1.2" stroke-miterlimit="10"></path>
  <path d="M81.9941 8.59546H236.376" stroke="#CD2C2C" stroke-width="1.2" stroke-miterlimit="10"></path>
  <path d="M76.7001 11.9805C74.22 11.9805 72.2148 13.9696 72.2148 16.4299V46.7906" stroke="#CD2C2C" stroke-width="1.2" stroke-miterlimit="10"></path>
  <path d="M37.6493 37.7875V11.3528H21.6254C17.9316 11.3528 14.9414 14.3191 14.9414 17.9833V45.9884V48.4312H24.9498C24.9498 48.4312 29.0305 42.551 37.6493 42.551C37.6493 40.9632 37.6493 37.7875 37.6493 37.7875Z" stroke="#CD2C2C" stroke-width="1.2" stroke-miterlimit="10"></path>
  <path d="M27.959 33.7041H32.1277" stroke="#CD2C2C" stroke-miterlimit="10"></path>
  <path d="M107.111 57.0332H80.8145V72.6149H107.111V57.0332Z" stroke="#CD2C2C" stroke-width="1.2" stroke-miterlimit="10"></path>
  <path d="M72.1992 66.1938V58.4465" stroke="#CD2C2C" stroke-width="1.2" stroke-miterlimit="10"></path>
  <path d="M68.8918 46.7905H57.9336" stroke="#CD2C2C" stroke-width="1.2" stroke-miterlimit="10"></path>
  <path d="M72.1928 38.5896C72.1928 38.5896 60.7949 33.7913 60.7949 46.7905" stroke="#CD2C2C" stroke-width="1.2" stroke-miterlimit="10"></path>
  <path d="M211.446 64.1436H206.562" stroke="#CD2C2C" stroke-width="1.2" stroke-miterlimit="10"></path>
  <path d="M211.593 74.3425V57.0334L233.685 42.5161V17.6692H225.242V39.2183L203.695 53.6484V57.7663V74.3425H211.593Z" stroke="#CD2C2C" stroke-width="1.2" stroke-miterlimit="10"></path>
  <path d="M195.816 53.6479V74.3421" stroke="#CD2C2C" stroke-width="1.2" stroke-miterlimit="10"></path>
  <path d="M125.703 53.2815V73.8535" stroke="#CD2C2C" stroke-width="1.2" stroke-miterlimit="10"></path>
  <path d="M122.94 66.1938H110.205" stroke="#CD2C2C" stroke-width="1.2" stroke-miterlimit="10"></path>
  <path d="M175.308 14.623H140.145V25.304H175.308V14.623Z" fill="#E8E7E7"></path>
  <path d="M121.584 14.623V25.304" stroke="#CD2C2C"></path>
  <path d="M102.047 14.623V25.304" stroke="#CD2C2C"></path>
  <path d="M212.422 14.623V25.304" stroke="#CD2C2C"></path>
  <path d="M82.5117 14.623V25.304" stroke="#CD2C2C"></path>
  <path d="M192.889 14.623V25.304" stroke="#CD2C2C"></path>
  <path d="M84.6855 63.5767H102.627" stroke="#CD2C2C" stroke-width="1.2" stroke-miterlimit="10"></path>
</svg>
