<?xml version="1.0" encoding="UTF-8"?>
<svg xmlns="http://www.w3.org/2000/svg" width="259" height="92" viewBox="0 0 259 92" fill="none">
  <g clip-path="url(#clip0)">
    <path d="M111.656 7.53213C125.653 -3.78093e-05 147.344 0.430371 156.746 0.860781C159.524 0.968383 161.234 2.36721 162.73 5.05727L163.905 7.42452" stroke="#CD2C2C" stroke-width="1.2" stroke-miterlimit="10"></path>
    <path d="M42.8461 84.2526H107.062C108.771 81.1322 108.558 76.6129 106.528 73.6L105.459 71.986H48.8296C48.7227 72.0936 49.5775 80.0561 42.8461 84.2526Z" fill="#E8E7E7"></path>
    <path d="M121.059 47.4527L117.64 52.51L104.497 40.4585C101.078 37.338 96.5907 35.5088 91.8894 35.5088H86.3333H52.1418C46.7994 35.5088 41.5639 36.9076 36.8626 39.5977L32.5886 42.0725V34.0024L66.6732 29.4831L67.4211 31.2047L73.2978 30.8819V28.6222L96.2701 25.6094L115.182 26.0398L118.601 43.9018L121.059 47.4527Z" fill="#E8E7E7"></path>
    <path d="M72.1224 51.3263H68.5964V57.89H72.1224V51.3263Z" fill="#CD2C2C"></path>
    <path d="M239.019 54.7695L227.8 60.1496L229.189 63.4853L240.836 57.89L239.019 54.7695Z" fill="#E8E7E7"></path>
    <path d="M228.335 80.8094L248.636 68.3275C251.093 66.8211 251.948 63.593 250.452 61.1182L245.644 52.9404C244.682 51.3264 242.438 50.7883 240.943 51.972C239.66 52.8328 239.233 54.5544 239.874 55.9533L242.225 61.441C242.973 63.055 242.332 64.9919 240.729 65.8527L225.556 74.2457" stroke="#CD2C2C" stroke-width="1.2" stroke-miterlimit="10"></path>
    <path d="M223.526 37.4457L185.809 33.6796V37.4457L179.612 47.5603H171.491V60.1498L167.004 58.9662V27.9767L222.671 33.034L223.526 37.4457Z" fill="#E8E7E7"></path>
    <path d="M167.004 27.9767L219.573 32.3884C221.817 32.6036 223.526 34.4328 223.526 36.8001V60.2574H225.556C227.266 60.2574 228.655 61.6562 228.655 63.3779C228.655 64.2387 228.334 64.9919 227.8 65.5299L226.411 66.9287C225.877 67.4667 225.556 68.3276 225.556 69.0808V73.4925C225.556 74.3533 225.877 75.1065 226.518 75.7521L227.693 76.9357C228.334 77.5814 228.655 78.3346 228.655 79.1954C228.655 80.917 227.266 82.4235 225.45 82.4235H218.932" stroke="#CD2C2C" stroke-width="1.2" stroke-miterlimit="10"></path>
    <path d="M67.3142 42.9333H50.8596C43.7007 42.9333 36.9693 46.269 32.5885 52.0795L30.2379 55.9532L28.9557 58.6433" stroke="#CD2C2C" stroke-width="1.2" stroke-miterlimit="10"></path>
    <path d="M82.0593 42.9333H73.2977" stroke="#CD2C2C" stroke-width="1.2" stroke-miterlimit="10"></path>
    <path d="M141.894 74.9989L113.58 49.2819C108.878 45.0855 102.788 42.8258 96.4838 42.8258H88.8976" stroke="#CD2C2C" stroke-width="1.2" stroke-miterlimit="10"></path>
    <path d="M112.084 26.1473H94.6675L73.6184 28.8374" stroke="#CD2C2C" stroke-width="1.2" stroke-miterlimit="10"></path>
    <path d="M16.134 57.0292V41.1041L29.0627 34.6479L67.3143 29.6982" stroke="#CD2C2C" stroke-width="1.2" stroke-miterlimit="10"></path>
    <path d="M13.0354 42.9333L0.640991 47.9907V68.4351H3.3122" stroke="#CD2C2C" stroke-width="1.2" stroke-miterlimit="10"></path>
    <path d="M112.084 7.74731L118.388 43.4713C118.922 46.3766 121.38 48.421 124.264 48.421H158.242L163.798 7.74731H112.084V7.74731Z" stroke="#CD2C2C" stroke-width="1.2" stroke-miterlimit="10"></path>
    <path d="M136.552 13.6655V42.9334C136.552 43.9018 135.697 44.7626 134.735 44.7626H123.623C122.768 44.7626 122.021 44.117 121.807 43.2562L116.358 13.9884C116.144 12.8047 116.999 11.8363 118.174 11.8363H134.735C135.697 11.8363 136.552 12.6971 136.552 13.6655Z" fill="#E8E7E7"></path>
    <path d="M141.04 13.6655V43.041C141.04 44.0094 141.894 44.8702 142.856 44.8702H144.993C146.168 44.8702 147.237 44.4398 148.092 43.579L153.861 37.9837C155.25 36.5848 156.105 34.7556 156.105 32.7112L158.028 14.2036C158.135 12.9123 157.174 11.8363 155.892 11.8363H142.749C141.894 11.8363 141.04 12.6971 141.04 13.6655Z" fill="#E8E7E7"></path>
    <path d="M200.02 91.3544C209.529 91.3544 217.222 83.7146 217.222 74.2456C217.222 64.7766 209.529 57.1368 200.02 57.1368C190.51 57.1368 182.817 64.7766 182.817 74.2456C182.817 83.7146 190.51 91.3544 200.02 91.3544Z" stroke="#CD2C2C" stroke-width="1.2" stroke-miterlimit="10"></path>
    <path d="M200.02 82.1006C204.4 82.1006 207.926 78.5497 207.926 74.138C207.926 69.7263 204.4 66.1754 200.02 66.1754C195.639 66.1754 192.113 69.7263 192.113 74.138C192.006 78.5497 195.639 82.1006 200.02 82.1006Z" fill="#CD2C2C"></path>
    <path d="M158.99 91.3544C168.499 91.3544 176.193 83.7146 176.193 74.2456C176.193 64.7766 168.499 57.1368 158.99 57.1368C149.48 57.1368 141.787 64.7766 141.787 74.2456C141.894 83.7146 149.48 91.3544 158.99 91.3544Z" stroke="#CD2C2C" stroke-width="1.2" stroke-miterlimit="10"></path>
    <path d="M158.99 82.1006C163.371 82.1006 166.897 78.5497 166.897 74.138C166.897 69.7263 163.371 66.1754 158.99 66.1754C154.609 66.1754 151.083 69.7263 151.083 74.138C151.083 78.5497 154.609 82.1006 158.99 82.1006Z" fill="#CD2C2C"></path>
    <path d="M21.7968 91.3544C31.3063 91.3544 38.9994 83.7146 38.9994 74.2456C38.9994 64.7766 31.3063 57.1368 21.7968 57.1368C12.2873 57.1368 4.59424 64.7766 4.59424 74.2456C4.59424 83.7146 12.2873 91.3544 21.7968 91.3544Z" stroke="#CD2C2C" stroke-width="1.2" stroke-miterlimit="10"></path>
    <path d="M21.7967 82.1006C26.1774 82.1006 29.7034 78.5497 29.7034 74.138C29.7034 69.7263 26.1774 66.1754 21.7967 66.1754C17.4159 66.1754 13.8899 69.7263 13.8899 74.138C13.8899 78.5497 17.4159 82.1006 21.7967 82.1006Z" fill="#CD2C2C"></path>
    <path d="M84.1963 46.4843H80.1361V50.3579L81.632 52.2948V62.8398H86.0128V49.4971L84.1963 46.4843Z" fill="#E8E7E7"></path>
    <path d="M176.727 82.2081H181.856" stroke="#CD2C2C" stroke-width="1.2" stroke-miterlimit="10"></path>
    <path d="M73.2978 39.9205V51.4339H67.3143V6.88656C67.3143 6.02574 67.9554 5.38013 68.8102 5.38013H71.6951C72.5499 5.38013 73.191 6.02574 73.191 6.88656V30.7743" stroke="#CD2C2C" stroke-width="1.2" stroke-miterlimit="10"></path>
    <path d="M39.5337 63.3778H78.7469V57.5673H32.1611" stroke="#CD2C2C" stroke-width="1.2" stroke-miterlimit="10"></path>
    <path d="M51.8214 63.3777V69.8339H86.2265C88.2566 69.8339 90.1799 70.8023 91.2484 72.5239L92.21 74.0304H97.9798L95.0949 66.821C94.2401 64.669 91.9963 63.2701 89.5388 63.2701H75.7554" stroke="#CD2C2C" stroke-width="1.2" stroke-miterlimit="10"></path>
    <path d="M42.8461 87.5883H111.763C113.473 83.8222 113.259 79.5181 111.122 75.9672L109.947 74.0304H52.5693" stroke="#CD2C2C" stroke-width="1.2" stroke-miterlimit="10"></path>
    <path d="M103.856 76.8281C103.856 76.8281 106.207 81.993 102.36 87.5884" stroke="#CD2C2C" stroke-width="1.2" stroke-miterlimit="10"></path>
    <path d="M55.8816 76.8281C55.8816 76.8281 58.2323 81.993 54.3857 87.5884" stroke="#CD2C2C" stroke-width="1.2" stroke-miterlimit="10"></path>
    <path d="M79.1743 76.8281C79.1743 76.8281 81.525 81.993 77.6785 87.5884" stroke="#CD2C2C" stroke-width="1.2" stroke-miterlimit="10"></path>
    <path d="M80.243 39.8129L87.0812 51.3263H98.7277V47.0223H90.5004L84.7306 30.9895H67.3143V40.0281L80.243 39.8129Z" fill="white" stroke="#CD2C2C" stroke-width="1.2" stroke-miterlimit="10"></path>
    <path d="M71.8019 37.4456C72.8641 37.4456 73.7252 36.5784 73.7252 35.5087C73.7252 34.4391 72.8641 33.5719 71.8019 33.5719C70.7397 33.5719 69.8787 34.4391 69.8787 35.5087C69.8787 36.5784 70.7397 37.4456 71.8019 37.4456Z" fill="#CD2C2C"></path>
    <path d="M222.992 66.0679C224.054 66.0679 224.915 65.2007 224.915 64.1311C224.915 63.0614 224.054 62.1942 222.992 62.1942C221.93 62.1942 221.069 63.0614 221.069 64.1311C221.069 65.2007 221.93 66.0679 222.992 66.0679Z" fill="#E8E7E7"></path>
    <path d="M242.866 56.1685C243.633 56.1685 244.255 55.5422 244.255 54.7697C244.255 53.9971 243.633 53.3708 242.866 53.3708C242.099 53.3708 241.477 53.9971 241.477 54.7697C241.477 55.5422 242.099 56.1685 242.866 56.1685Z" fill="#E8E7E7"></path>
    <path d="M222.992 80.3789C224.054 80.3789 224.915 79.5118 224.915 78.4421C224.915 77.3724 224.054 76.5052 222.992 76.5052C221.93 76.5052 221.069 77.3724 221.069 78.4421C221.069 79.5118 221.93 80.3789 222.992 80.3789Z" fill="#E8E7E7"></path>
    <path d="M138.903 7.74731V48.421" stroke="#CD2C2C" stroke-width="1.2" stroke-miterlimit="10"></path>
    <path d="M190.083 60.1497H168.927" stroke="#CD2C2C" stroke-width="1.2" stroke-miterlimit="10"></path>
    <path d="M224.061 60.1497H209.85" stroke="#CD2C2C" stroke-width="1.2" stroke-miterlimit="10"></path>
    <path d="M251.2 65.3146H258.466V75.4292C258.466 79.0877 256.436 82.531 253.123 84.2526L249.063 86.297C248.636 86.5122 248.208 86.0818 248.422 85.6514L250.559 82.3157C252.162 79.7333 253.016 76.7204 253.016 73.7076V71.0175H244.255" stroke="#CD2C2C" stroke-width="1.2" stroke-miterlimit="10"></path>
    <path d="M249.277 71.0176V75.4293C249.277 79.0878 247.247 82.531 243.934 84.2527L239.874 86.2971C239.447 86.5123 239.019 86.0819 239.233 85.6515L241.37 82.3158C242.973 79.7334 243.827 76.7205 243.827 73.7076V71.0176" stroke="#CD2C2C" stroke-width="1.2" stroke-miterlimit="10"></path>
    <path d="M240.408 73.3848V75.4292C240.408 79.0877 238.378 82.531 235.066 84.2526L231.006 86.2971C230.578 86.5123 230.151 86.0818 230.365 85.6514L232.502 82.3158C233.463 80.8093 234.211 78.5497 234.639 76.828" stroke="#CD2C2C" stroke-width="1.2" stroke-miterlimit="10"></path>
    <path d="M174.269 82.2081H184.847" stroke="#CD2C2C" stroke-width="1.2" stroke-miterlimit="10"></path>
    <path d="M158.349 47.4526L163.157 57.5673" stroke="#CD2C2C" stroke-width="1.2" stroke-miterlimit="10"></path>
    <path d="M160.806 53.3708H156.212C149.267 53.3708 142.963 57.7825 140.612 64.3463L138.048 71.448" stroke="#CD2C2C" stroke-width="1.2" stroke-miterlimit="10"></path>
    <path d="M207.286 37.0153V53.3708" stroke="#CD2C2C" stroke-width="1.2" stroke-miterlimit="10"></path>
    <path d="M193.075 37.0153V47.4527" stroke="#CD2C2C" stroke-width="1.2" stroke-miterlimit="10"></path>
    <path d="M203.759 48.421H196.494V53.0479H203.759V48.421Z" fill="#E8E7E7"></path>
    <path d="M148.305 51.3263H130.355V60.1497L136.552 65.745L138.261 61.5485C139.116 59.3965 140.398 57.4596 141.894 55.8456C143.39 54.2316 145.1 53.0479 147.023 51.9719L148.305 51.3263Z" fill="#E8E7E7"></path>
    <path d="M108.985 29.6982L107.596 31.8503C106.848 33.0339 106.421 34.4327 106.421 35.9392V45.193" stroke="#CD2C2C" stroke-width="1.2" stroke-miterlimit="10"></path>
  </g>
  <defs>
    <clipPath id="clip0">
      <rect width="259" height="92" fill="white"></rect>
    </clipPath>
  </defs>
</svg>
