<?xml version="1.0" encoding="UTF-8"?>
<svg xmlns="http://www.w3.org/2000/svg" width="44" height="50" viewBox="0 0 44 50" fill="none">
  <g clip-path="url(#clip0)">
    <path d="M21.9355 0.495605C21.9355 0.495605 6.73259 1.64526 0.367432 8.57291C0.367432 23.2905 3.88266 40.0298 21.9355 49.5541C39.9883 40.0298 43.5035 23.2905 43.5035 8.57291C37.1384 1.65517 21.9355 0.495605 21.9355 0.495605Z" fill="#969697"></path>
    <path d="M0.367432 8.57291C0.367432 23.2905 3.88266 40.0298 21.9355 49.5541V0.495605C21.9355 0.495605 6.72266 1.65517 0.367432 8.57291Z" fill="#BCBDBD"></path>
    <path d="M21.9355 49.564C39.9883 40.0397 43.5035 23.3004 43.5035 8.58282C37.1384 1.65517 21.9355 0.495605 21.9355 0.495605C21.9355 0.495605 6.72266 1.65517 0.367432 8.57291" stroke="#CD2C2C"></path>
    <path d="M13.7233 21.0704L21.9751 29.3062L35.0232 16.2834" stroke="white" stroke-width="6" stroke-miterlimit="10"></path>
  </g>
  <defs>
    <clipPath id="clip0">
      <rect width="44" height="50" fill="white"></rect>
    </clipPath>
  </defs>
</svg>
