<?xml version="1.0" encoding="UTF-8"?>
<svg xmlns="http://www.w3.org/2000/svg" width="272" height="113" viewBox="0 0 272 113" fill="none">
  <path d="M249.37 77.6184V90.002C249.37 94.7564 247.485 99.2897 244.046 102.607L239.72 106.919C239.276 107.361 239.72 108.024 240.274 107.914L247.152 106.366C251.367 105.371 255.25 103.049 257.912 99.6214C260.574 96.1938 262.016 92.1028 262.016 87.7906V77.729" fill="#E8E7E7"></path>
  <path d="M113.925 44.3376H91.628V56.2789H113.925V44.3376Z" fill="#E8E7E7"></path>
  <path d="M104.496 16.2534H98.062V33.2808H104.496V16.2534Z" fill="#E8E7E7"></path>
  <path d="M103.276 10.8356H99.1713V27.863H103.276V10.8356Z" fill="#E8E7E7"></path>
  <path d="M120.137 26.2045H116.033V33.1702H120.137V26.2045Z" fill="#E8E7E7"></path>
  <path d="M122.467 23.3297H113.592V27.6418H122.467V23.3297Z" fill="#E8E7E7"></path>
  <path d="M170.721 10.725L140.659 12.7152V33.3913L91.628 33.1702V39.8042H138.219L139.993 49.7553H160.959V37.04L170.721 36.4872" fill="#E8E7E7"></path>
  <path d="M178.486 10.5039L185.031 9.95105L188.248 36.4873H178.486V10.5039Z" fill="#E8E7E7"></path>
  <path d="M178.486 10.2827L185.031 9.84045L188.803 36.7084L202.447 52.4089V56.4999L207.661 57.6056C209.436 57.9373 210.767 59.1536 211.432 60.8121L213.207 65.677C213.762 67.1144 213.651 68.6624 212.874 69.9892L208.77 77.1761" stroke="#CD2C2C" stroke-width="1.2" stroke-miterlimit="10"></path>
  <path d="M170.721 10.8356L140.437 12.6047L140.659 33.3913H73.3246V75.9598" stroke="#CD2C2C" stroke-width="1.2" stroke-miterlimit="10"></path>
  <path d="M188.913 37.0401H178.486V9.17708L183.478 7.29743V2.76416H165.84V7.29743L170.721 9.17708V37.0401H162.401L160.959 49.7554H139.993L138.218 39.8043H93.5137" stroke="#CD2C2C" stroke-width="1.2" stroke-miterlimit="10"></path>
  <path d="M202.336 72.4217V59.7064H162.401" stroke="#CD2C2C" stroke-width="1.2" stroke-miterlimit="10"></path>
  <path d="M185.031 39.8043V59.7065" stroke="#CD2C2C" stroke-width="1.2" stroke-miterlimit="10"></path>
  <path d="M143.321 18.1331V32.3963C143.321 32.728 143.432 32.9491 143.543 33.1702C144.098 34.2759 145.762 37.8141 146.649 39.5832C146.982 40.2466 147.648 40.5783 148.313 40.5783H155.635C156.633 40.5783 157.409 39.8043 157.52 38.9198L159.184 18.2436C159.295 17.138 158.408 16.2534 157.298 16.2534H145.207C144.209 16.2534 143.321 17.0274 143.321 18.1331Z" fill="#CD2C2C"></path>
  <path d="M170.943 16.2534H165.285C164.287 16.2534 163.511 17.0274 163.4 17.9119L162.29 30.9589C162.179 32.0646 163.067 32.9491 164.176 32.9491H170.943" fill="#CD2C2C"></path>
  <path d="M178.486 16.2534H180.816C181.814 16.2534 182.591 17.0274 182.702 17.9119L183.811 30.9589C183.922 32.0646 183.034 32.9491 181.925 32.9491H178.597" fill="#CD2C2C"></path>
  <path d="M131.23 104.818H196.9C205.331 104.818 212.209 97.9628 212.209 89.5597C212.209 82.2622 207.106 76.0704 200.006 74.6331L159.739 69.2152C154.192 68.4413 148.424 68.4413 142.878 69.2152L94.6231 75.7387C87.7454 77.0655 82.8645 83.1468 82.8645 90.1125C82.8645 98.1839 89.4094 104.707 97.5072 104.707H131.23V104.818Z" stroke="#CD2C2C" stroke-width="1.2" stroke-miterlimit="10"></path>
  <path d="M91.628 35.0499V63.1341L101.944 71.2055" stroke="#CD2C2C" stroke-width="1.2" stroke-miterlimit="10"></path>
  <path d="M97.9512 100.174H196.124C201.892 100.174 206.662 95.4198 206.662 89.6703C206.662 83.9208 201.892 79.1664 196.124 79.1664H97.9512C92.1828 79.1664 87.4128 83.9208 87.4128 89.6703C87.4128 95.5304 92.1828 100.174 97.9512 100.174Z" fill="#E8E7E7"></path>
  <path d="M195.902 99.6213C201.449 99.6213 205.886 95.1986 205.886 89.7808C205.886 84.363 201.449 79.9403 195.902 79.9403C190.356 79.9403 185.918 84.363 185.918 89.7808C185.918 95.1986 190.467 99.6213 195.902 99.6213Z" stroke="#CD2C2C" stroke-width="1.2" stroke-miterlimit="10"></path>
  <path d="M195.902 94.3141C198.454 94.3141 200.561 92.3239 200.561 89.7808C200.561 87.2378 198.454 85.2476 195.902 85.2476C193.351 85.2476 191.243 87.2378 191.243 89.7808C191.354 92.3239 193.351 94.3141 195.902 94.3141Z" fill="#E8E7E7"></path>
  <path d="M212.985 80.3825L245.377 70.7632" stroke="#CD2C2C" stroke-width="1.2" stroke-miterlimit="10"></path>
  <path d="M215.648 89.4491L253.142 77.8395" stroke="#CD2C2C" stroke-width="1.2" stroke-miterlimit="10"></path>
  <path d="M255.25 77.6184V90.002C255.25 94.7564 253.364 99.2897 249.925 102.607L245.599 106.919C245.155 107.361 245.599 108.024 246.153 107.914L253.031 106.366C257.246 105.371 261.129 103.049 263.791 99.6214C266.453 96.1938 267.896 92.1028 267.896 87.7906V77.729" stroke="#CD2C2C" stroke-width="1.2" stroke-miterlimit="10"></path>
  <path d="M212.209 71.4267H231.954V64.7926H213.207" stroke="#CD2C2C" stroke-width="1.2" stroke-miterlimit="10"></path>
  <path d="M231.51 70.2103H245.82V65.8982H232.287" fill="#CD2C2C"></path>
  <path d="M226.408 52.7407L242.271 44.1164L240.163 40.5782L225.077 48.7602" fill="#CD2C2C"></path>
  <path d="M212.098 62.5812L227.517 53.9569L223.856 47.8757L206.44 57.3845" stroke="#CD2C2C" stroke-width="1.2" stroke-miterlimit="10"></path>
  <path d="M237.501 45.3326L245.71 64.1291V77.6184H271.334V60.9227C266.564 61.0332 262.016 59.1536 258.688 55.8366L247.706 39.6937C246.042 37.2612 242.825 36.4872 240.274 37.8141C237.501 39.1409 236.281 42.4579 237.501 45.3326Z" fill="white" stroke="#CD2C2C" stroke-width="1.2" stroke-miterlimit="10"></path>
  <path d="M242.825 45.1116C244.173 45.1116 245.266 44.0225 245.266 42.6791C245.266 41.3356 244.173 40.2466 242.825 40.2466C241.478 40.2466 240.385 41.3356 240.385 42.6791C240.385 44.0225 241.478 45.1116 242.825 45.1116Z" fill="#CD2C2C"></path>
  <path d="M261.018 74.3013C264.142 74.3013 266.675 71.7767 266.675 68.6624C266.675 65.5481 264.142 63.0234 261.018 63.0234C257.893 63.0234 255.36 65.5481 255.36 68.6624C255.36 71.7767 257.893 74.3013 261.018 74.3013Z" fill="#E8E7E7"></path>
  <path d="M73.5464 54.3992L61.7878 85.5792L64.3392 87.2377L76.7634 54.3992H73.5464Z" fill="#CD2C2C"></path>
  <path d="M90.9625 5.52832L69.8858 58.9324L76.3197 61.1438L96.6199 7.96081L90.9625 5.52832Z" fill="white" stroke="#CD2C2C" stroke-width="1.2" stroke-miterlimit="10"></path>
  <path d="M155.634 83.1467L104.718 86.3532L64.1174 71.6477L61.566 77.9501L86.3033 87.5694H86.1924L45.9249 90.1125L44.9265 93.4295C43.7063 97.5205 47.0342 101.612 51.3604 101.28L156.633 92.6555C159.184 92.4344 161.07 90.3336 160.959 87.7906C160.737 85.0264 158.297 83.0362 155.634 83.1467Z" fill="white" stroke="#CD2C2C" stroke-width="1.2" stroke-miterlimit="10"></path>
  <path d="M155.635 90.2231C156.982 90.2231 158.075 89.1341 158.075 87.7906C158.075 86.4472 156.982 85.3582 155.635 85.3582C154.287 85.3582 153.194 86.4472 153.194 87.7906C153.194 89.1341 154.287 90.2231 155.635 90.2231Z" fill="#CD2C2C"></path>
  <path d="M51.8042 50.5294L49.8075 83.6997L55.6868 89.8915L55.243 96.8572L27.5106 104.155L1.77484 102.607L16.6394 90.6654L24.0717 54.8415L52.2479 43.7848L51.8042 50.5294Z" fill="white" stroke="#CD2C2C" stroke-width="1.2" stroke-miterlimit="10"></path>
  <path d="M38.9364 53.8464C38.9364 53.8464 36.4959 82.1517 31.0604 89.8914C25.6248 97.6311 21.6313 100.064 21.6313 100.064L45.7031 88.454L48.0326 50.8611L38.9364 53.8464Z" fill="#E8E7E7"></path>
  <path d="M28.1761 53.183L26.1794 84.8053C25.8466 90.6654 22.075 95.7515 16.6394 98.0734L12.8678 99.6213" stroke="#CD2C2C" stroke-width="1.2" stroke-miterlimit="10"></path>
  <path d="M44.8156 83.5891L33.2789 88.1224L33.9445 99.0686" stroke="#CD2C2C" stroke-width="1.2" stroke-miterlimit="10"></path>
  <path d="M49.5857 94.9775C50.9335 94.9775 52.0261 93.8885 52.0261 92.545C52.0261 91.2016 50.9335 90.1125 49.5857 90.1125C48.2378 90.1125 47.1452 91.2016 47.1452 92.545C47.1452 93.8885 48.2378 94.9775 49.5857 94.9775Z" fill="#CD2C2C"></path>
  <path d="M107.38 86.2427L84.9722 87.5695" stroke="#CD2C2C" stroke-width="1.2" stroke-miterlimit="10"></path>
  <path d="M51.4714 68.4413L63.7846 72.7534L62.3426 76.7338L51.0277 72.864L51.4714 68.4413Z" fill="#CD2C2C"></path>
  <path d="M83.641 78.3923L81.2006 84.9158" stroke="#CD2C2C" stroke-width="1.2" stroke-miterlimit="10"></path>
  <path d="M66.7797 88.7857L61.3442 81.1565L50.6949 80.7142" fill="white"></path>
  <path d="M66.7797 88.7857L61.3442 81.1565L50.6949 80.7142" stroke="#CD2C2C" stroke-width="1.2" stroke-miterlimit="10"></path>
  <path d="M134.003 44.3376H118.029V61.0333H134.003V44.3376Z" fill="#E8E7E7"></path>
</svg>
