<?xml version="1.0" encoding="UTF-8"?>
<svg xmlns="http://www.w3.org/2000/svg" fill="none" height="107" viewBox="0 0 353 107" width="353">
  <path d="m235.885 25.0898h-5.603v49.8598h5.603z" fill="#e8e7e7"></path>
  <path d="m285.376 95.4493c3.19 0 5.776-2.542 5.776-5.6778 0-3.1357-2.586-5.6777-5.776-5.6777-3.189 0-5.775 2.542-5.775 5.6777 0 3.1358 2.586 5.6778 5.775 5.6778z" fill="#cd2c2c"></path>
  <path d="m250.149 48.4258v19.0364l5.532-.8089 3.48-13.636" fill="#e8e7e7"></path>
  <path d="m108.641 27.0704h-16.6055" stroke="#cd2c2c" stroke-miterlimit="10" stroke-width="1.2"></path>
  <path d="m105.108 58.3216-20.2922 1.5146.678 8.78 20.2922-1.5145z" stroke="#cd2c2c" stroke-miterlimit="10" stroke-width="1.2"></path>
  <path d="m149.656 43.1868h-144.25884v6.3249h144.25884z" fill="#e8e7e7"></path>
  <path d="m308.064 95.4498v7.1492h-3.166v-7.1492" fill="#e8e7e7"></path>
  <path d="m198.668 105.674c8.933 0 16.174-7.1191 16.174-15.9009s-7.241-15.9009-16.174-15.9009c-8.932 0-16.174 7.1191-16.174 15.9009s7.242 15.9009 16.174 15.9009z" stroke="#cd2c2c" stroke-miterlimit="10" stroke-width="1.2"></path>
  <path d="m198.674 97.8071c4.514 0 8.173-3.5975 8.173-8.0352s-3.659-8.0352-8.173-8.0352-8.174 3.5975-8.174 8.0352 3.66 8.0352 8.174 8.0352z" stroke="#cd2c2c" stroke-miterlimit="10" stroke-width="1.2"></path>
  <path d="m198.673 95.4493c3.19 0 5.776-2.542 5.776-5.6778 0-3.1357-2.586-5.6777-5.776-5.6777-3.189 0-5.775 2.542-5.775 5.6777 0 3.1358 2.586 5.6778 5.775 5.6778z" fill="#cd2c2c"></path>
  <path d="m285.371 105.674c8.933 0 16.175-7.1191 16.175-15.9009s-7.242-15.9009-16.175-15.9009c-8.932 0-16.174 7.1191-16.174 15.9009s7.242 15.9009 16.174 15.9009z" stroke="#cd2c2c" stroke-miterlimit="10" stroke-width="1.2"></path>
  <path d="m285.373 97.8071c4.514 0 8.173-3.5975 8.173-8.0352s-3.659-8.0352-8.173-8.0352-8.173 3.5975-8.173 8.0352 3.659 8.0352 8.173 8.0352z" stroke="#cd2c2c" stroke-miterlimit="10" stroke-width="1.2"></path>
  <path d="m349.661 55.8443-3.135-3.2665-42.614-9.391h-44.416l7.766 12.6575z" fill="#e8e7e7"></path>
  <path d="m304.583 58.3326v37.1175h19.34l20.806-5.6777 7.272-3.8982v-2.9506" stroke="#cd2c2c" stroke-miterlimit="10" stroke-width="1.2"></path>
  <path d="m341.516 69.6467h-32.857v5.9171h32.857z" fill="#e8e7e7"></path>
  <path d="m346.49 60.7714v18.7373" stroke="#cd2c2c" stroke-miterlimit="10" stroke-width="1.2"></path>
  <path d="m309.917 102.6h-7.006v3.073h7.006z" stroke="#cd2c2c" stroke-miterlimit="10" stroke-width="1.2"></path>
  <path d="m176.246 96.8898v5.7082h-3.165v-5.7082" fill="#e8e7e7"></path>
  <path d="m178.104 102.6h-7.006v3.073h7.006z" stroke="#cd2c2c" stroke-miterlimit="10"></path>
  <path d="m5.39716 48.3013h144.85384" stroke="#cd2c2c" stroke-miterlimit="10" stroke-width="1.2"></path>
  <path d="m62.1588 38.472h88.0952" stroke="#cd2c2c" stroke-miterlimit="10" stroke-width="1.2"></path>
  <path d="m5.39716 38.472h47.55074" stroke="#cd2c2c" stroke-miterlimit="10" stroke-width="1.2"></path>
  <path d="m3.90249 37.778h-3.90249v10.5235h3.90249z" fill="#cd2c2c"></path>
  <path d="m155.391 37.778h-3.903v10.5235h3.903z" fill="#cd2c2c"></path>
  <path d="m59.1253 37.778h-3.9025v8.1661h3.9025z" stroke="#cd2c2c" stroke-miterlimit="10"></path>
  <path d="m36.8736 49.5197.4702 5.1616h17.3417 31.8781l1.0658-4.345" stroke="#cd2c2c" stroke-miterlimit="10" stroke-width="1.2"></path>
  <path d="m86.0356 54.6819-16.7619 5.6701" stroke="#cd2c2c" stroke-miterlimit="10" stroke-width="1.2"></path>
  <path d="m178.566 73.8722h-7.468v23.0116h7.468z" stroke="#cd2c2c" stroke-miterlimit="10" stroke-width="1.2"></path>
  <path d="m178.563 50.4678-21.425-9.9073" stroke="#cd2c2c" stroke-miterlimit="10" stroke-width="1.2"></path>
  <path d="m166.584 6.40833h-144.2583v6.32487h144.2583z" fill="#e8e7e7"></path>
  <path d="m22.3257 11.5237h144.8543" stroke="#cd2c2c" stroke-miterlimit="10" stroke-width="1.2"></path>
  <path d="m79.0739 1.68555h88.1031" stroke="#cd2c2c" stroke-miterlimit="10" stroke-width="1.2"></path>
  <path d="m22.3257 1.68555h47.5507" stroke="#cd2c2c" stroke-miterlimit="10" stroke-width="1.2"></path>
  <path d="m20.8253 1h-3.9025v10.5236h3.9025z" fill="#cd2c2c"></path>
  <path d="m172.311 1h-3.902v10.5236h3.902z" fill="#cd2c2c"></path>
  <path d="m76.0424 1h-3.9025v8.16616h3.9025z" stroke="#cd2c2c" stroke-miterlimit="10"></path>
  <path d="m183 61.8294-63.215 4.5608-.674-9.4373 63.388-4.3759z" stroke="#cd2c2c" stroke-miterlimit="10" stroke-width="1.2"></path>
  <path d="m152.513 64.0262 30.491 6.8026" stroke="#cd2c2c" stroke-miterlimit="10" stroke-width="1.2"></path>
  <path d="m168.409 62.6232 14.591 3.5284" stroke="#cd2c2c" stroke-miterlimit="10" stroke-width="1.2"></path>
  <path d="m37.6144 57.8092s16.5425-1.0477 19.4733 5.7702c2.9307 6.818 8.5337 17.9656 18.9403 17.0488s13.737-14.0288 18.8071-15.7391 11.2059 1.5716 12.2719 15.0766c1.066 13.5049 19.073 8.2586 20.139-2.7503 1.066-11.0166 6.003-25.4384 18.541-22.0332 12.538 3.4128 15.876 13.5049 27.474 7.9966 11.605-5.5083 17.271-4.8534 17.24 5.7703-.032 10.6237-6.771 7.9966-8.001 4.9151" stroke="#e8e7e7" stroke-linecap="round" stroke-miterlimit="10" stroke-width="6"></path>
  <path d="m200.479 23.195h47.354c0-2.758-2.272-4.9844-5.07-4.9844h-37.214c-2.798 0-5.07 2.2341-5.07 4.9844zm0 0-1.321 23.6576" stroke="#cd2c2c" stroke-miterlimit="10" stroke-width="1.2"></path>
  <path d="m215.811 89.1975v-31.1285h-3.143" stroke="#cd2c2c" stroke-miterlimit="10" stroke-width="1.2"></path>
  <path d="m301.549 79.2488-5.634-7.4882h-21.213l-6.034 6.8334h-9.505l9.137-21.1088h83.7v22.0949" stroke="#cd2c2c" stroke-miterlimit="10" stroke-width="1.2"></path>
  <path d="m259.161 78.5942h-3.064v16.9718h11.205" stroke="#cd2c2c" stroke-miterlimit="10" stroke-width="1.2"></path>
  <path d="m262.695 91.4594c.766 0 1.387-.6105 1.387-1.3636s-.621-1.3636-1.387-1.3636c-.767 0-1.388.6105-1.388 1.3636s.621 1.3636 1.388 1.3636z" fill="#cd2c2c"></path>
  <path d="m237.553 23.1952v27.2719" stroke="#cd2c2c" stroke-miterlimit="10" stroke-width="1.2"></path>
  <path d="m117.748 58.4143-11.205.8363.265 3.426 11.205-.8363z" fill="#e8e7e7"></path>
  <path d="m83.294 61.3368-20.6591 1.542.2646 3.426 20.6591-1.542z" fill="#e8e7e7"></path>
  <g stroke-miterlimit="10">
    <path d="m31.8768 48.3013v3.7903s-3.6674 1.3174-3.6047-3.7903" stroke="#cd2c2c" stroke-width="1.2"></path>
    <path d="m41.2177 57.7699s11.5977 26.2704 23.0073 7.519" stroke="#e8e7e7" stroke-linecap="round" stroke-width="6"></path>
    <path d="m65.7562 14.1429.5407 3.5438h44.9491l1.732-4.1987" stroke="#cd2c2c" stroke-width="1.2"></path>
    <path d="m51.2902 13.8809.0783 2.1186h7.1154l.2743-2.5115" stroke="#cd2c2c" stroke-width="1.2"></path>
    <path d="m110.379 15.1288s-21.0093 20.192-35.1303 8.066c-1.8807-1.8335 4.9212-3.0122 8.5181-1.8335" stroke="#e8e7e7" stroke-linecap="round" stroke-width="4"></path>
    <path d="m81.7649 17.6869 2.6024 7.0106" stroke="#cd2c2c" stroke-width="1.2"></path>
    <path d="m127.054 20.699h-18.705v7.8349h18.705z" stroke="#cd2c2c" stroke-width="1.2"></path>
    <path d="m147.707 36.1993-13.785-6.3712-3.048 5.8319-8.729-4.0754" stroke="#cd2c2c" stroke-width="1.2"></path>
    <path d="m115.741 28.5343-.595 6.4944 6.998 3.4437" stroke="#cd2c2c" stroke-width="1.2"></path>
    <path d="m110.379 22.4711h12.209" stroke="#cd2c2c" stroke-width="1.2"></path>
    <path d="m110.379 25.5062h12.209" stroke="#cd2c2c" stroke-width="1.2"></path>
    <path d="m305.585 45.5134v8.6284" stroke="#cd2c2c" stroke-width="1.2"></path>
    <path d="m199.576 73.8709 4.874-17.6035-2.437-9.5374h-13.04v3.7364" stroke="#cd2c2c" stroke-width="1.2"></path>
    <path d="m182.494 52.577h8.009 13" stroke="#cd2c2c" stroke-width="1.2"></path>
    <path d="m205.681 75.4354v-17.1028h6.903" stroke="#cd2c2c" stroke-width="1.2"></path>
    <path d="m232.491 24.3041v59.0043 12.958h9.506v-15.6004l-4.459-.1464v-26.5246" stroke="#cd2c2c" stroke-width="1.2"></path>
    <path d="m217.008 77.0735h12.801" stroke="#cd2c2c" stroke-width="1.2"></path>
    <path d="m217.008 82.8375h12.801" stroke="#cd2c2c" stroke-width="1.2"></path>
    <path d="m217.008 89.7527h12.801" stroke="#cd2c2c" stroke-width="1.2"></path>
    <path d="m217.008 96.6685h12.801" stroke="#cd2c2c" stroke-width="1.2"></path>
    <path d="m237.553 46.7306h19.842l2.1-3.5438h44.416l42.614 9.3911" stroke="#cd2c2c" stroke-width="1.2"></path>
    <path d="m275.8 60.7714v6.9032" stroke="#cd2c2c" stroke-width="1.2"></path>
    <path d="m285.76 60.7714v6.9032" stroke="#cd2c2c" stroke-width="1.2"></path>
    <path d="m294.72 60.7714v6.9032" stroke="#cd2c2c" stroke-width="1.2"></path>
    <path d="m319.611 60.7714v6.9032" stroke="#cd2c2c" stroke-width="1.2"></path>
    <path d="m309.653 60.7714v6.9032" stroke="#cd2c2c" stroke-width="1.2"></path>
    <path d="m329.568 60.7714v6.9032" stroke="#cd2c2c" stroke-width="1.2"></path>
    <path d="m339.524 60.7714v6.9032" stroke="#cd2c2c" stroke-width="1.2"></path>
    <path d="m248.191 46.73v29.0438l-10.657-.1464" stroke="#cd2c2c" stroke-width="1.2"></path>
    <path d="m154.861 49.2185 5.133 2.8196" stroke="#cd2c2c" stroke-width="1.2"></path>
  </g>
  <path d="m254.296 84.7878h-10.407v9.6376h10.407z" fill="#e8e7e7"></path>
  <path d="m254.296 80.5974h-10.407v3.1124h10.407z" fill="#e8e7e7"></path>
  <path d="m340.065 79.1873c.554 0 1.003-.4415 1.003-.9861s-.449-.9861-1.003-.9861c-.555 0-1.004.4415-1.004.9861s.449.9861 1.004.9861z" fill="#cd2c2c"></path>
  <path d="m325.193 79.1873c.554 0 1.003-.4415 1.003-.9861s-.449-.9861-1.003-.9861-1.003.4415-1.003.9861.449.9861 1.003.9861z" fill="#cd2c2c"></path>
  <path d="m310.321 79.1873c.554 0 1.004-.4415 1.004-.9861s-.45-.9861-1.004-.9861-1.003.4415-1.003.9861.449.9861 1.003.9861z" fill="#cd2c2c"></path>
  <path d="m202.247 47.6399 2.829-.054 3.338 10.9165" stroke="#cd2c2c" stroke-miterlimit="10" stroke-width="1.2"></path>
  <path d="m72.1399 2.84082h3.9025" stroke="#cd2c2c" stroke-miterlimit="10" stroke-width="1.2"></path>
  <path d="m55.2228 40.1282h3.9025" stroke="#cd2c2c" stroke-miterlimit="10" stroke-width="1.2"></path>
  <path d="m69.162 44.0038c.4588 0 .8308-.3656.8308-.8166s-.372-.8166-.8308-.8166c-.4589 0-.8309.3656-.8309.8166s.372.8166.8309.8166z" fill="#cd2c2c"></path>
  <path d="m83.4309 44.0031c.4589 0 .8309-.3656.8309-.8166s-.372-.8166-.8309-.8166-.8309.3656-.8309.8166.372.8166.8309.8166z" fill="#cd2c2c"></path>
  <path d="m97.7046 44.0031c.4589 0 .8309-.3656.8309-.8166s-.372-.8166-.8309-.8166-.8309.3656-.8309.8166.372.8166.8309.8166z" fill="#cd2c2c"></path>
  <path d="m111.975 44.0031c.458 0 .83-.3656.83-.8166s-.372-.8166-.83-.8166c-.459 0-.831.3656-.831.8166s.372.8166.831.8166z" fill="#cd2c2c"></path>
  <path d="m126.254 44.0031c.459 0 .831-.3656.831-.8166s-.372-.8166-.831-.8166-.831.3656-.831.8166.372.8166.831.8166z" fill="#cd2c2c"></path>
  <path d="m140.522 44.0031c.459 0 .831-.3656.831-.8166s-.372-.8166-.831-.8166-.831.3656-.831.8166.372.8166.831.8166z" fill="#cd2c2c"></path>
  <path d="m84.9439 7.22552c.4589 0 .8309-.36562.8309-.81662s-.372-.81661-.8309-.81661-.8309.36561-.8309.81661.372.81662.8309.81662z" fill="#cd2c2c"></path>
  <path d="m99.2136 7.22466c.4589 0 .8304-.36561.8304-.81661 0-.45101-.3715-.81662-.8304-.81662s-.8309.36561-.8309.81662c0 .451.372.81661.8309.81661z" fill="#cd2c2c"></path>
  <path d="m113.495 7.22466c.459 0 .831-.36561.831-.81661 0-.45101-.372-.81662-.831-.81662s-.831.36561-.831.81662c0 .451.372.81661.831.81661z" fill="#cd2c2c"></path>
  <path d="m127.763 7.22466c.459 0 .831-.36561.831-.81661 0-.45101-.372-.81662-.831-.81662s-.831.36561-.831.81662c0 .451.372.81661.831.81661z" fill="#cd2c2c"></path>
  <path d="m142.031 7.22466c.459 0 .831-.36561.831-.81661 0-.45101-.372-.81662-.831-.81662s-.831.36561-.831.81662c0 .451.372.81661.831.81661z" fill="#cd2c2c"></path>
  <path d="m156.301 7.22466c.459 0 .831-.36561.831-.81661 0-.45101-.372-.81662-.831-.81662s-.831.36561-.831.81662c0 .451.372.81661.831.81661z" fill="#cd2c2c"></path>
  <path d="m15.2893 44.0038c.4589 0 .8309-.3656.8309-.8166s-.372-.8166-.8309-.8166-.8309.3656-.8309.8166.372.8166.8309.8166z" fill="#cd2c2c"></path>
  <path d="m29.5606 44.0031c.4589 0 .8309-.3656.8309-.8166s-.372-.8166-.8309-.8166-.8309.3656-.8309.8166.372.8166.8309.8166z" fill="#cd2c2c"></path>
  <path d="m43.8362 44.0031c.4589 0 .8309-.3656.8309-.8166s-.372-.8166-.8309-.8166-.8309.3656-.8309.8166.372.8166.8309.8166z" fill="#cd2c2c"></path>
  <path d="m32.7092 7.0783c.4589 0 .8309-.36561.8309-.81662 0-.451-.372-.81661-.8309-.81661s-.8309.36561-.8309.81661c0 .45101.372.81662.8309.81662z" fill="#cd2c2c"></path>
  <path d="m46.9861 7.0772c.4589 0 .8309-.36561.8309-.81661 0-.45101-.372-.81662-.8309-.81662s-.8309.36561-.8309.81662c0 .451.372.81661.8309.81661z" fill="#cd2c2c"></path>
  <path d="m61.256 7.0772c.4589 0 .8309-.36561.8309-.81661 0-.45101-.372-.81662-.8309-.81662s-.8309.36561-.8309.81662c0 .451.372.81661.8309.81661z" fill="#cd2c2c"></path>
  <path d="m209.128 52.577h19.982" stroke="#cd2c2c" stroke-miterlimit="10" stroke-width="1.2"></path>
</svg>
