<?xml version="1.0" encoding="UTF-8"?>
<svg xmlns="http://www.w3.org/2000/svg" xmlns:xlink="http://www.w3.org/1999/xlink" fill="none" height="89" viewBox="0 0 316 89" width="316">
  <clipPath id="a">
    <path d="m0 0h316v89h-316z"></path>
  </clipPath>
  <g clip-path="url(#a)">
    <path d="m17.6375 32.6563 38.9597 32.6003 3.0888 3.4649s-5.6105 1.9182-12.8819-3.4649c-7.2714-5.3832-36.6304-27.1368-36.7418-27.2171-.11142-.0804-.75957-1.5166-.75957-1.5166l8.30437-4.0273z" fill="#e8e7e7"></path>
    <path d="m309.741 37.658h-23.809v7.0101h23.809z" fill="#e8e7e7"></path>
    <path d="m234.846 70.1775c6.293 0 11.394-5.0585 11.394-11.2986 0-6.24-5.101-11.2986-11.394-11.2986-6.292 0-11.393 5.0586-11.393 11.2986 0 6.2401 5.101 11.2986 11.393 11.2986z" fill="#e8e7e7"></path>
    <path d="m234.849 65.2664c3.557 0 6.441-2.8597 6.441-6.3875 0-3.5277-2.884-6.3874-6.441-6.3874s-6.441 2.8597-6.441 6.3874c0 3.5278 2.884 6.3875 6.441 6.3875z" fill="#cd2c2c"></path>
    <path d="m234.846 70.1775c6.293 0 11.394-5.0585 11.394-11.2986 0-6.24-5.101-11.2986-11.394-11.2986-6.292 0-11.393 5.0586-11.393 11.2986 0 6.2401 5.101 11.2986 11.393 11.2986z" stroke="#cd2c2c" stroke-miterlimit="10" stroke-width="1.2"></path>
    <path d="m234.847 87c15.66 0 28.356-12.5902 28.356-28.121 0-15.5307-12.696-28.1209-28.356-28.1209-15.661 0-28.357 12.5902-28.357 28.1209 0 15.5308 12.696 28.121 28.357 28.121z" stroke="#cd2c2c" stroke-miterlimit="10" stroke-width="1.2"></path>
    <path d="m126.001 70.1775c6.292 0 11.393-5.0585 11.393-11.2986 0-6.24-5.101-11.2986-11.393-11.2986-6.293 0-11.394 5.0586-11.394 11.2986 0 6.2401 5.101 11.2986 11.394 11.2986z" fill="#e8e7e7"></path>
    <path d="m125.615 65.2664c3.557 0 6.441-2.8597 6.441-6.3875 0-3.5277-2.884-6.3874-6.441-6.3874s-6.441 2.8597-6.441 6.3874c0 3.5278 2.884 6.3875 6.441 6.3875z" fill="#cd2c2c"></path>
    <path d="m125.616 70.1775c6.292 0 11.393-5.0585 11.393-11.2986 0-6.24-5.101-11.2986-11.393-11.2986s-11.393 5.0586-11.393 11.2986c0 6.2401 5.101 11.2986 11.393 11.2986z" stroke="#cd2c2c" stroke-miterlimit="10" stroke-width="1.2"></path>
    <path d="m125.614 87c15.661 0 28.357-12.5902 28.357-28.121 0-15.5307-12.696-28.1209-28.357-28.1209s-28.3562 12.5902-28.3562 28.1209c0 15.5308 12.6952 28.121 28.3562 28.121z" stroke="#cd2c2c" stroke-miterlimit="10" stroke-width="1.2"></path>
    <path d="m307.206 49.6291h-38.403l-8.922-23.9531" stroke="#cd2c2c" stroke-miterlimit="10" stroke-width="1.2"></path>
    <path d="m226.562 1v23.6518l-19.232 16.4809-5.266 18.6v13.8596h-25.957v-72.5923z" stroke="#cd2c2c" stroke-miterlimit="10" stroke-width="1.2"></path>
    <path d="m202.064 59.7329h-25.957" stroke="#cd2c2c" stroke-miterlimit="10" stroke-width="1.2"></path>
    <path d="m176.107 4.4751h-3.97l3.97 24.9674" stroke="#cd2c2c" stroke-miterlimit="10" stroke-width="1.2"></path>
    <path d="m176.108 24.7119h-18.34v48.8803h18.34z" stroke="#cd2c2c" stroke-miterlimit="10" stroke-width="1.2"></path>
    <path d="m309.741 31.3809h6.258v25.5097l-8.79 3.4649" stroke="#cd2c2c" stroke-miterlimit="10" stroke-width="1.2"></path>
    <path d="m263.204 73.5922h13.875l30.128-10.927v-36.9891h-64.764l.932-4.5596h44.135l-.871 4.5596" stroke="#cd2c2c" stroke-miterlimit="10" stroke-width="1.2"></path>
    <path d="m301.588 52.4812h-32.752v4.188h32.752z" stroke="#cd2c2c" stroke-miterlimit="10" stroke-width="1.2"></path>
    <path d="m179.25 4.4751h44.57" stroke="#cd2c2c" stroke-miterlimit="10" stroke-width="1.2"></path>
    <path d="m219.503 21.8898h-35.303c-1.884 0-3.403-1.5165-3.403-3.3745v-7.0102c0-1.868 1.529-3.37448 3.403-3.37448h35.303c1.884 0 3.403 1.51652 3.403 3.37448v7.0102c0 1.868-1.519 3.3745-3.403 3.3745z" fill="#e8e7e7"></path>
    <g stroke="#cd2c2c" stroke-miterlimit="10" stroke-width="1.2">
      <path d="m157.77 24.7116s-33.978-5.1321-49.756-.5122c-12.0412 3.5252-25.551 12.4435-31.7894 17.3446"></path>
      <path d="m84.2235 21.8896-16.0214 39.3494c-3.1395 7.7131-12.7908 10.3947-19.5153 5.4132l-46.6868-34.5888 3.1901-2.8121c2.27864-2.0187 5.7523-1.9283 7.9297.1908 0 0 48.0945-7.0402 71.1037-7.5525z"></path>
      <path d="m8.5 36.885 9.1348-4.2282 53.2696-2.8924 5.5802 11.1379"></path>
      <path d="m61.9121 67.9076s4.5978 3.0832 12.092-2.6816 21.6116-12.7448 21.6116-12.7448"></path>
      <path d="m150.002 23.7278v15.0849"></path>
      <path d="m164.117 24.7119v29.8685l8.021 19.0118"></path>
      <path d="m123.284 6.25244h-7.352v6.53816h7.352z"></path>
      <path d="m121.613 22.2715v-7.6931"></path>
      <path d="m117.666 14.5784v8.0747"></path>
      <path d="m229.197 24.6516h13.247"></path>
      <path d="m83.4961 52.4814c.3848-.0803 8.4056-4.9011 8.4056-4.9011"></path>
      <path d="m182.875 31.9128v17.2342"></path>
      <path d="m191.299 31.9128v17.2342"></path>
      <path d="m199.725 31.9128v17.2342"></path>
    </g>
  </g>
</svg>
