<?xml version="1.0" encoding="UTF-8"?>
<svg xmlns="http://www.w3.org/2000/svg" xmlns:xlink="http://www.w3.org/1999/xlink" fill="none" height="84" viewBox="0 0 300 84" width="300">
  <clipPath id="a">
    <path d="m0 0h300v84h-300z"></path>
  </clipPath>
  <g clip-path="url(#a)">
    <path d="m229.406 38.3022.34-5.2036-39.492 30.5637 7.283.735z" fill="#e8e7e7"></path>
    <path d="m254.456 66.8089c5.961 0 10.794-4.8644 10.794-10.8649s-4.833-10.8649-10.794-10.8649-10.794 4.8644-10.794 10.8649 4.833 10.8649 10.794 10.8649z" fill="#e8e7e7"></path>
    <path d="m99.3446 66.8089c5.9614 0 10.7934-4.8644 10.7934-10.8649s-4.832-10.8649-10.7934-10.8649c-5.9613 0-10.7938 4.8644-10.7938 10.8649s4.8325 10.8649 10.7938 10.8649z" fill="#e8e7e7"></path>
    <path d="m278.111 11.6015h-144.791v-7.67962h152.433z" fill="#e8e7e7"></path>
    <path d="m218.639 8.75119 1.16-.98654h-65.436l.353.98654z" fill="#e8e7e7"></path>
    <path d="m158.183 16.4309c3.03 1.6829 12.734 8.0149 12.734 8.0149l3.825 21.6783 34.879-29.6867h-51.438z" fill="#e8e7e7"></path>
    <path d="m187.834 59.7871h-8.885v7.6796h8.885z" fill="#e8e7e7"></path>
    <path d="m67.2451 61.5986h-20.1142v9.5496h20.1142z" fill="#e8e7e7"></path>
    <path d="m62.4451 50.7857h-10.7938c-1.9281 0-3.4911-1.5733-3.4911-3.5142v-32.814c0-1.9408 1.563-3.5141 3.4911-3.5141h10.7938c1.9282 0 3.4912 1.5733 3.4912 3.5141v32.814c0 1.9409-1.563 3.5142-3.4912 3.5142z" fill="#e8e7e7"></path>
    <path d="m98.9739 62.0887c3.3711 0 6.1051-2.7511 6.1051-6.1449s-2.734-6.145-6.1051-6.145c-3.3716 0-6.1048 2.7512-6.1048 6.145s2.7332 6.1449 6.1048 6.1449z" fill="#cd2c2c"></path>
    <path d="m98.9715 66.8089c5.9615 0 10.7935-4.8644 10.7935-10.8649s-4.832-10.8649-10.7935-10.8649c-5.9612 0-10.7938 4.8644-10.7938 10.8649s4.8326 10.8649 10.7938 10.8649z" stroke="#cd2c2c" stroke-miterlimit="10" stroke-width="1.2"></path>
    <path d="m98.9726 83c14.8444 0 26.8784-12.1133 26.8784-27.0559s-12.034-27.0559-26.8784-27.0559c-14.8448 0-26.8788 12.1133-26.8788 27.0559s12.034 27.0559 26.8788 27.0559z" stroke="#cd2c2c" stroke-miterlimit="10" stroke-width="1.2"></path>
    <path d="m127.765 67.4669v-17.6676c0-8.679-4.054-16.3973-10.364-21.3494v-3.6754-16.35214s-25.8412 0-29.2235 0c-3.3822 0-7.8279 4.50074-7.8279 8.17614" stroke="#cd2c2c" stroke-miterlimit="10" stroke-width="1.2"></path>
    <path d="m33.0605 23.2399v30.0736h36.5836.6662v-10.3813c0-9.3368 4.7019-17.5709 11.8508-22.4327l-5.5923-12.07714" stroke="#cd2c2c" stroke-miterlimit="10" stroke-width="1.2"></path>
    <path d="m254.452 62.0887c3.372 0 6.105-2.7511 6.105-6.1449s-2.733-6.145-6.105-6.145c-3.371 0-6.104 2.7512-6.104 6.145s2.733 6.1449 6.104 6.1449z" fill="#cd2c2c"></path>
    <path d="m254.456 66.8089c5.961 0 10.794-4.8644 10.794-10.8649s-4.833-10.8649-10.794-10.8649-10.794 4.8644-10.794 10.8649 4.833 10.8649 10.794 10.8649z" stroke="#cd2c2c" stroke-miterlimit="10" stroke-width="1.2"></path>
    <path d="m254.455 83c14.845 0 26.879-12.1133 26.879-27.0559s-12.034-27.0559-26.879-27.0559-26.879 12.1133-26.879 27.0559 12.034 27.0559 26.879 27.0559z" stroke="#cd2c2c" stroke-miterlimit="10" stroke-width="1.2"></path>
    <path d="m197.539 59.7871h23.99l3.818-2.8564" stroke="#cd2c2c" stroke-miterlimit="10" stroke-width="1.2"></path>
    <path d="m299 16.8695-13.574-12.94762h-152.106v12.94762l25.079 9.7688 7.412 33.1493h15.265" stroke="#cd2c2c" stroke-miterlimit="10" stroke-width="1.2"></path>
    <path d="m275.613 35.2521 12.434-9.7687" stroke="#cd2c2c" stroke-miterlimit="10" stroke-width="1.2"></path>
    <path d="m133.32 11.6006h142.901" stroke="#cd2c2c" stroke-miterlimit="10" stroke-width="1.2"></path>
    <path d="m297.51 19.3575-14.264-14.3575-6.246 6.2874 14.263 14.3576z" fill="#e8e7e7"></path>
    <path d="m283.242 20.3833h-63.456l-37.442 30.1472" stroke="#cd2c2c" stroke-miterlimit="10" stroke-width="1.2"></path>
    <path d="m162.857 46.5947 9.385 4.1912h10.668" stroke="#cd2c2c" stroke-miterlimit="10" stroke-width="1.2"></path>
    <path d="m224.221 25.8685-39.491 30.5602 5.521 7.2284 39.491-30.5603z" stroke="#cd2c2c" stroke-miterlimit="10" stroke-width="1.2"></path>
    <path d="m186.023 58.1122-2.357 1.8238 2.948 3.86 2.357-1.8239z" stroke="#cd2c2c" stroke-miterlimit="10" stroke-width="1.2"></path>
    <path d="m216.608 43.2671-3.376-4.4169 13.139-10.1686" stroke="#cd2c2c" stroke-miterlimit="10" stroke-width="1.2"></path>
    <path d="m226.871 64.9459-3.382 2.5212h-62.803l-6.323-2.5212v-39.8746" stroke="#cd2c2c" stroke-miterlimit="10" stroke-width="1.2"></path>
    <path d="m76.5648 8.42224h-47.1019v-1.56687c0-2.68238 2.1587-4.85537 4.8236-4.85537h42.2783z" stroke="#cd2c2c" stroke-miterlimit="10" stroke-width="1.2"></path>
    <path d="m31.6997 8.42236 1.3644 14.81754h-27.40408c-2.14595 0-3.92036 1.7023-4.01645 3.8624l-1.454117 31.2536h9.813747l30.7479 10.6457h34.6811" stroke="#cd2c2c" stroke-miterlimit="10" stroke-width="1.2"></path>
    <path d="m44.1695 26.4769h-6.9503c-.7879 0-1.4477-.4965-1.531-1.1606l-1.4734-11.2841c-.1024-.7673.615-1.4443 1.531-1.4443h8.4237c.852 0 1.5374.5803 1.5374 1.3025v11.284c0 .7158-.6854 1.3025-1.5374 1.3025z" fill="#cd2c2c"></path>
    <path d="m0 50.5303h5.6629" stroke="#cd2c2c" stroke-miterlimit="10" stroke-width="1.2"></path>
    <path d="m33.0605 53.3071v6.4803h39.2357" stroke="#cd2c2c" stroke-miterlimit="10" stroke-width="1.2"></path>
    <path d="m123.293 67.4668h20.979v-42.6924h-66.729" stroke="#cd2c2c" stroke-miterlimit="10" stroke-width="1.2"></path>
    <path d="m140.623 28.8882h-10.141v11.2518h10.141z" fill="#e8e7e7"></path>
    <path d="m22.0279 50.5302h-11.2113c-.96976 0-1.75605-.8427-1.75605-1.8821v-15.4222c0-1.0394.78629-1.8821 1.75605-1.8821h11.2113c.9697 0 1.756.8427 1.756 1.8821v15.4152c0 1.0393-.7863 1.8891-1.756 1.8891z" stroke="#cd2c2c" stroke-miterlimit="10" stroke-width="1.2"></path>
    <path d="m1.32812 33.8916h1.10181c1.59505 0 2.88261 1.3025 2.88261 2.9016v13.9922" stroke="#cd2c2c" stroke-miterlimit="10" stroke-width="1.2"></path>
    <path d="m96.6868 11.6006h-6.1048v7.6796h6.1048z" fill="#e8e7e7"></path>
    <path d="m105.079 11.6006h-6.1044v7.6796h6.1044z" fill="#e8e7e7"></path>
    <path d="m113.474 11.6006h-6.105v7.6796h6.105z" fill="#e8e7e7"></path>
    <path d="m134.954 65.6291c1.943 0 3.517-2.1017 3.517-4.6942s-1.574-4.6942-3.517-4.6942c-1.942 0-3.516 2.1017-3.516 4.6942s1.574 4.6942 3.516 4.6942z" fill="#e8e7e7"></path>
    <g stroke="#cd2c2c" stroke-miterlimit="10" stroke-width="1.2">
      <path d="m137.027 11.6006v2.9661l24.201 9.6591 6.323 24.4638"></path>
      <path d="m154.363 60.3354h-7.963v4.662h7.963z"></path>
      <path d="m154.365 62.6689h-4.849"></path>
      <path d="m144.275 57.8076h6.791v2.5276"></path>
      <path d="m152.698 64.9971v4.2557h-15.208v-1.7861"></path>
      <path d="m142.686 24.7743v-1.9086h6.252"></path>
      <path d="m154.361 26.8184h-7.713v2.0698h7.713z"></path>
      <path d="m150.861 26.8185v-3.0499"></path>
      <path d="m144.275 32.0477h6.586v-3.1595"></path>
      <path d="m223.162 20.3833 7.476 9.0015c.807.9736 2.21 1.1864 3.267.5029l14.669-9.498"></path>
    </g>
    <path d="m232.212 27.4114c.814 0 1.474-.664 1.474-1.483 0-.8191-.66-1.4831-1.474-1.4831s-1.474.664-1.474 1.4831c0 .819.66 1.483 1.474 1.483z" fill="#cd2c2c"></path>
    <path d="m183.01 64.7845c.693 0 1.256-.5659 1.256-1.2639 0-.6979-.563-1.2638-1.256-1.2638-.694 0-1.256.5659-1.256 1.2638 0 .698.562 1.2639 1.256 1.2639z" fill="#cd2c2c"></path>
    <path d="m69.6406 12.7036v7.6281c0 .6061.4869 1.0961 1.089 1.0961h5.1823c.788 0 1.3132-.8124.9993-1.5411l-3.3438-7.628c-.173-.3997-.5637-.6512-.9993-.6512h-1.8321c-.6021-.0065-1.0954.49-1.0954 1.0961z" fill="#cd2c2c"></path>
    <path d="m61.5741 12.5938h-9.0514c-1.0826 0-1.9602.8833-1.9602 1.973v9.93c0 1.0897.8776 1.9731 1.9602 1.9731h9.0514c1.0826 0 1.9602-.8834 1.9602-1.9731v-9.93c0-1.0897-.8776-1.973-1.9602-1.973z" fill="#cd2c2c"></path>
  </g>
</svg>
