<?xml version="1.0" standalone="no"?>
<!DOCTYPE svg PUBLIC "-//W3C//DTD SVG 20010904//EN"
 "http://www.w3.org/TR/2001/REC-SVG-20010904/DTD/svg10.dtd">
<svg version="1.0" xmlns="http://www.w3.org/2000/svg"
 width="700.000000pt" height="700.000000pt" viewBox="0 0 700.000000 700.000000"
 preserveAspectRatio="xMidYMid meet">
<metadata>
Created by potrace 1.14, written by Peter Selinger 2001-2017
</metadata>
<g transform="translate(0.000000,700.000000) scale(0.100000,-0.100000)"
fill="#000000" stroke="none">
<path d="M3398 6207 c-1374 -1366 -1999 -1989 -1996 -1992 2 -2 118 -5 257 -6
140 -1 275 -6 300 -10 25 -4 67 -10 92 -13 136 -18 308 -81 412 -149 102 -68
226 -200 273 -292 58 -111 72 -159 89 -300 2 -16 4 -281 5 -587 0 -476 3 -564
16 -610 19 -62 78 -181 162 -328 33 -57 59 -108 56 -111 -5 -9 -402 -289 -408
-289 -3 0 -11 6 -19 14 -15 16 -69 62 -162 141 -33 28 -80 69 -105 92 l-46 42
-135 -67 c-295 -149 -510 -195 -782 -168 -87 9 -221 48 -304 88 -226 109 -388
320 -431 563 -8 48 -9 268 0 310 42 214 153 367 346 472 126 69 256 107 477
139 28 4 192 8 366 9 173 1 320 4 326 8 6 4 9 55 7 129 -3 161 -22 214 -104
296 -49 49 -70 63 -127 81 -37 11 -85 24 -107 27 -21 3 -48 8 -60 11 -11 3
-212 8 -445 10 l-424 5 -463 -466 -464 -465 0 -1396 0 -1395 1390 0 1390 0
839 842 840 843 -341 5 -340 5 -144 435 c-80 239 -264 795 -410 1235 -147 440
-267 804 -268 810 -1 10 728 15 745 4 8 -5 590 -1873 606 -1946 6 -24 39 -41
54 -26 7 7 383 1215 450 1443 10 36 51 171 91 300 l73 235 378 0 c207 0 377
-1 377 -3 0 -1 -20 -62 -44 -135 -24 -73 -114 -348 -201 -612 -86 -264 -202
-616 -257 -783 -55 -167 -98 -305 -96 -308 3 -2 424 417 936 930 l932 935 0
1395 0 1396 -1403 0 -1402 0 -797 -793z"/>
<path d="M1645 2733 c-163 -23 -272 -87 -320 -189 -30 -63 -40 -155 -24 -219
65 -259 313 -351 647 -239 93 31 190 75 222 101 l25 21 0 266 0 266 -260 -1
c-143 -1 -273 -4 -290 -6z"/>
</g>
</svg>
