<?xml version="1.0" encoding="UTF-8"?>
<svg xmlns="http://www.w3.org/2000/svg" width="82" height="48" viewBox="0 0 82 48" fill="none">
  <path d="M49.1337 2L62.8671 21.3938L68.4602 21.1249L80.9996 46.9998H17.2725L49.1337 2Z" fill="#BCBDBD"></path>
  <path d="M49.136 19.9999V2L17.2725 46.9998H60.6612V34.2499L49.136 19.9999Z" fill="#969697"></path>
  <path d="M20.1167 20L39.2363 46.9999H1L20.1167 20Z" fill="#BCBCBD"></path>
  <path opacity="0.2" d="M20.1181 30.8V20L1 46.9999H20.1181V30.8Z" fill="black"></path>
  <path d="M80.9979 46.9998L68.967 21.1249H62.6764L49.1343 2L28.1179 31.2499L26.762 29.3749L19.9826 19.9999L1 46.9998" stroke="white"></path>
  <path d="M47.6119 26.7501L59.3065 47H36.4258L47.6119 26.7501Z" fill="white"></path>
  <path d="M34.3932 33.4998L42.5286 46.9997H26.2578L34.3932 33.4998Z" fill="white"></path>
</svg>
