<svg width="50" height="50" viewBox="0 0 50 50" fill="none" xmlns="http://www.w3.org/2000/svg">
<path d="M17.6741 7.89044C17.5899 7.69385 17.6809 7.46584 17.8792 7.38567C21.8277 5.78907 26.2024 5.56413 30.2997 6.75386C34.5211 7.97962 38.1868 10.6312 40.6724 14.2567C43.158 17.8823 44.3096 22.2575 43.9309 26.6369C43.5523 31.0163 41.6668 35.1289 38.5958 38.274C35.5249 41.4192 31.4584 43.4022 27.0892 43.8852C22.7201 44.3682 18.3187 43.3213 14.6349 40.9229C10.9511 38.5245 8.21284 34.9231 6.88673 30.7321C5.59961 26.6643 5.72012 22.2855 7.22209 18.3001C7.2975 18.1 7.52328 18.0036 7.72183 18.083C7.92037 18.1625 8.01648 18.3878 7.94123 18.5879C6.50575 22.407 6.39203 26.6015 7.62511 30.4985C8.89715 34.5186 11.5238 37.9733 15.0574 40.2739C18.5911 42.5745 22.8131 43.5787 27.0042 43.1154C31.1952 42.6521 35.0959 40.7499 38.0417 37.733C40.9875 34.7161 42.7961 30.7711 43.1593 26.5702C43.5225 22.3693 42.4179 18.1724 40.0337 14.6946C37.6494 11.2169 34.133 8.67339 30.0837 7.4976C26.1585 6.35783 21.9678 6.57157 18.1841 8.09774C17.9858 8.17774 17.7583 8.08703 17.6741 7.89044Z" fill="#CD2C2C"/>
</svg>
