<svg width="253" height="250" viewBox="0 0 253 250" fill="none" xmlns="http://www.w3.org/2000/svg">
<path d="M151.624 0L50.2474 99.6503C53.7735 99.6503 59.0627 99.6503 62.5888 99.6503C81.101 99.6503 89.0348 104.895 94.324 110.14C99.6132 115.385 102.258 121.503 102.258 130.245V162.587C102.258 166.084 102.258 168.706 103.139 170.455C104.021 173.951 111.073 185.315 111.073 185.315L96.0871 195.804L83.7456 185.315C81.101 187.063 74.0488 190.559 70.5226 191.434C64.3519 194.056 58.1812 194.056 55.5366 194.056C50.2474 194.056 44.0767 193.182 37.9059 189.685C31.7352 186.189 23.8014 178.322 23.8014 165.21C23.8014 139.86 49.3658 137.238 63.4704 137.238H79.338V131.119C79.338 125 76.6934 122.378 73.1672 119.755C69.6411 118.007 62.5888 117.133 56.4181 117.133H33.4983L0 150.35V250H100.495L161.321 189.685H136.638L106.666 100.524H133.993L156.031 171.329H157.794L179.833 100.524H207.16L185.122 166.958L253 99.6503V0H151.624ZM46.7213 164.336C46.7213 168.706 49.3658 173.951 53.7735 175.699C62.5888 180.07 75.8118 173.951 79.338 171.329V152.098H64.3519C48.4843 152.098 46.7213 159.965 46.7213 164.336Z" fill="#E4E4E4"/>
</svg>
