<svg width="72" height="54" viewBox="0 0 72 54" fill="none" xmlns="http://www.w3.org/2000/svg">
<path d="M46.6936 45.7549H25.3077C25.3077 49.8223 23.4375 51.9954 23.4375 51.9954V54.0001H36.0007H48.5639V51.9954C48.5639 51.9954 46.6936 49.8223 46.6936 45.7549Z" fill="#E8E7E7"/>
<path d="M67.0814 45.4527H4.91857C2.75148 45.4527 1 43.7329 1 41.618V35.9705H71V41.618C71 43.7387 69.2426 45.4527 67.0814 45.4527Z" fill="#E8E7E7"/>
<path d="M7.70703 45.7548H67.0794C69.2465 45.7548 70.998 44.0349 70.998 41.9199V8.05614C70.998 5.9353 69.2405 4.22119 67.0794 4.22119H46.2872" stroke="#CD2C2C" stroke-miterlimit="10"/>
<path d="M9.60305 4.22119H4.91857C2.75148 4.22119 1 5.94111 1 8.05614V39.9734" stroke="#CD2C2C" stroke-miterlimit="10"/>
<path d="M36.0001 41.4492C36.4166 41.4492 36.7542 41.1187 36.7542 40.7111C36.7542 40.3034 36.4166 39.9729 36.0001 39.9729C35.5837 39.9729 35.2461 40.3034 35.2461 40.7111C35.2461 41.1187 35.5837 41.4492 36.0001 41.4492Z" fill="#CD2C2C"/>
<path d="M15.1755 24.9621H42.5283V1H17.9007C14.843 1 12.3672 3.42294 12.3672 6.41531V20.8193" stroke="#CD2C2C" stroke-miterlimit="10"/>
<path d="M57.8356 24.9616H42.5234V8.04175H52.5752L55.1697 14.6481H55.9653C57.7881 14.6481 59.2664 16.0949 59.2664 17.8787V23.5496C59.2724 24.3282 58.6312 24.9616 57.8356 24.9616Z" stroke="#CD2C2C" stroke-miterlimit="10"/>
<path d="M51.1406 28.7506C53.2785 28.7506 55.0117 27.0543 55.0117 24.9618C55.0117 22.8694 53.2785 21.1731 51.1406 21.1731C49.0027 21.1731 47.2695 22.8694 47.2695 24.9618C47.2695 27.0543 49.0027 28.7506 51.1406 28.7506Z" fill="#E8E7E7"/>
<path d="M22.3594 28.7506C24.4973 28.7506 26.2304 27.0543 26.2304 24.9618C26.2304 22.8694 24.4973 21.1731 22.3594 21.1731C20.2214 21.1731 18.4883 22.8694 18.4883 24.9618C18.4883 27.0543 20.2214 28.7506 22.3594 28.7506Z" fill="#E8E7E7"/>
<path d="M18.4883 25.2521C18.4883 23.1603 20.222 21.1731 22.3594 21.1731C24.4968 21.1731 26.2304 22.8698 26.2304 24.9616C26.2304 25.0138 26.2304 25.1998 26.2245 25.2521" stroke="#CD2C2C" stroke-miterlimit="10"/>
<path d="M47.2695 25.2521C47.2695 23.1603 49.0032 21.1731 51.1406 21.1731C53.278 21.1731 55.0117 22.8698 55.0117 24.9616C55.0117 25.0138 55.0117 25.1998 55.0057 25.2521" stroke="#CD2C2C" stroke-miterlimit="10"/>
<path d="M52.2982 14.9224H44.5977V9.5708H50.5943L52.2982 14.9224Z" fill="#E8E7E7"/>
<path d="M45.0234 16.863H47.9564" stroke="#CD2C2C" stroke-miterlimit="10"/>
</svg>
