<svg width="49" height="50" viewBox="0 0 49 50" fill="none" xmlns="http://www.w3.org/2000/svg">
<path d="M42.0053 19.466C41.6745 18.3767 41.2418 17.3005 40.7074 16.276L44.1686 11.4392L40.7201 8.00291L37.2717 4.56658L32.6398 8.19742C31.6091 7.66576 30.5402 7.25081 29.4458 6.92663L28.5297 1.01355L23.7069 1.07839L18.8842 1.14322L18.0825 7.39345C17.1281 7.74357 16.1992 8.17149 15.3085 8.69018L10.2312 4.9167L6.85913 8.43083L19.6477 21.1517C19.7749 20.9832 19.8894 20.8016 20.0421 20.646C22.3962 18.1952 26.2519 18.1433 28.6569 20.5423C31.0619 22.9412 31.1128 26.8703 28.7587 29.3211C28.606 29.4767 28.4406 29.5934 28.2752 29.7361L41.1273 42.5088L44.4994 38.9947L40.6183 33.8467C41.0891 32.952 41.4836 32.0183 41.8017 31.0717L47.9988 30.0862L47.9351 25.1716L47.8715 20.257L42.0053 19.466Z" fill="#969697"/>
<path d="M20.1563 29.4857C17.9039 27.2424 17.7385 23.6634 19.66 21.1996L6.85873 8.4917L3.49935 12.0188L7.59677 17.4521C7.2532 18.2431 6.9478 19.0341 6.71875 19.851L0 20.9273L0.0636246 25.8419L0.127249 30.7565L7.21502 31.7031C7.4568 32.3645 7.73675 33.0258 8.06759 33.6612L3.84292 39.5743L7.29137 43.0106L10.7398 46.4469L16.4533 41.9732C17.0768 42.2844 17.7131 42.5438 18.362 42.7642L19.4691 50L24.2919 49.9351L29.1146 49.8703L30.0053 42.9069C30.7688 42.6605 31.5196 42.3363 32.2576 41.9862L37.7675 46.0838L41.1396 42.5697L28.2875 29.7969C25.9206 31.8069 22.4086 31.7291 20.1563 29.4857Z" fill="#BCBDBD"/>
<path d="M40.6315 33.834L41.7259 31.2664C41.7768 31.1497 41.8913 31.059 42.0185 31.033L47.6811 30.1253C47.872 30.0994 48.012 29.9308 47.9993 29.7363L47.9484 25.1589L47.8975 20.5814C47.8975 20.3869 47.7575 20.2183 47.5666 20.2054L42.2476 19.4922C42.1076 19.4792 41.9804 19.3755 41.9422 19.2328C41.6495 18.2862 41.2678 17.3785 40.8224 16.4837C40.7588 16.3541 40.7715 16.1985 40.8479 16.0818L43.9782 11.6988C44.0927 11.5432 44.0673 11.3228 43.94 11.1931L40.7206 8.00315L37.5012 4.8132C37.3612 4.68353 37.1576 4.67056 37.0049 4.78726L32.8184 8.06798C32.7039 8.14579 32.5512 8.15876 32.424 8.09392C31.5332 7.65303 30.6043 7.27698 29.6627 6.9917C29.5227 6.9528 29.4209 6.83609 29.3954 6.68049L28.5683 1.325C28.5429 1.13049 28.3774 0.987851 28.1866 1.00082L23.6947 1.05269L19.2155 1.13049C19.0246 1.13049 18.8592 1.27313 18.8465 1.46764L18.1212 7.16027C18.1084 7.30292 18.0066 7.41962 17.8794 7.47149C17.065 7.76974 16.2761 8.14579 15.5126 8.57371C15.3853 8.65151 15.2326 8.63854 15.1054 8.54777L10.4989 5.11145C10.3462 4.99474 10.1299 5.02067 10.0027 5.15035L6.85962 8.43107L3.50024 11.9582" stroke="white"/>
<path d="M24.3531 31.3182C27.7897 31.3182 30.5756 28.4793 30.5756 24.9772C30.5756 21.4752 27.7897 18.6362 24.3531 18.6362C20.9165 18.6362 18.1306 21.4752 18.1306 24.9772C18.1306 28.4793 20.9165 31.3182 24.3531 31.3182Z" fill="white"/>
</svg>
