<svg width="45" height="52" viewBox="0 0 45 52" fill="none" xmlns="http://www.w3.org/2000/svg">
<path d="M22.5 1C22.5 1 7.34507 2.17148 1 9.23066C1 24.2276 4.50414 41.2848 22.5 50.9899C40.4959 41.2848 44 24.2276 44 9.23066C37.6549 2.18158 22.5 1 22.5 1Z" fill="#969697"/>
<path d="M1 9.23066C1 24.2276 4.50414 41.2848 22.5 50.9899V1C22.5 1 7.33517 2.18158 1 9.23066Z" fill="#BCBDBD"/>
<path d="M22.5 51C40.4959 41.2949 44 24.2377 44 9.24076C37.6549 2.18158 22.5 1 22.5 1C22.5 1 7.33517 2.18158 1 9.23066" stroke="white"/>
<path d="M15.8179 23.5006L22.5391 30.3578L35.546 17.0878" stroke="white" stroke-width="6" stroke-miterlimit="10"/>
</svg>
