<svg width="68" height="43" viewBox="0 0 68 43" fill="none" xmlns="http://www.w3.org/2000/svg">
<path d="M12.3135 27.353C12.2138 27.1076 7.20068 21.146 7.20068 21.146L16.1019 5.07996C16.1019 5.07996 20.0896 9.02068 26.9969 7.79371C33.9043 6.56675 54.968 23.4844 55.2529 27.4396C55.4807 30.5142 53.2163 31.9433 50.9233 31.1493C51.0658 34.8014 47.961 35.4942 46.6935 35.0468C47.5622 38.8431 43.5318 39.8824 41.4952 38.9875C41.1534 43.419 34.7873 42.8849 28.8484 39.2906" fill="#BCBDBD"/>
<path d="M25.644 7.49079C25.5443 7.49079 20.9441 14.3907 20.9441 14.3907C20.9441 14.3907 18.8648 18.7644 23.2513 17.9705C27.6236 17.1766 30.5432 12.875 30.5432 12.875L32.8076 12.1677C32.8076 12.1677 48.3313 18.9665 54.7117 26.0685C57.2895 23.6579 60.1806 21.4349 60.1806 21.4349L51.2224 5.16678C51.2224 5.16678 49.7698 6.63913 44.4148 5.26782C39.0598 3.89651 28.706 3.89651 25.644 7.49079Z" fill="#969697"/>
<path d="M28.4598 42.8851L31.9918 38.3236C31.9918 38.3236 32.12 33.4735 28.2034 34.0365C29.6846 29.7493 25.4547 28.3924 24.2869 29.0564C24.9705 25.6354 22.4212 23.6145 20.1995 24.6971C19.5159 25.6787 18.0632 27.6563 18.0632 27.6563C18.0632 27.6563 16.0978 22.0267 12.2383 25.159C11.1416 26.2994 10.102 28.6523 10.102 28.6523C10.102 28.6523 9.83138 32.3043 14.1609 32.2466C13.6767 35.1047 16.2545 37.0534 18.6044 36.2594C18.5047 40.1857 22.4497 40.3445 23.7884 39.8537C24.4151 43.0583 28.2034 43.2026 28.4598 42.8851Z" fill="#969697"/>
<path d="M4.353 22.705L0.963432 20.5253C-0.0050175 19.9046 -0.289856 18.6055 0.322546 17.6239L11.0894 1.97649C11.7018 0.994914 12.9836 0.706217 13.952 1.32692L16.658 3.0591C17.6265 3.6798 17.9113 4.97894 17.2989 5.96051L7.21563 22.0554C6.60323 23.037 5.32145 23.3401 4.353 22.705Z" fill="#969697"/>
<path d="M51.0012 2.72706L53.7356 1.39905C54.7325 0.821657 56.0001 1.16809 56.5697 2.1641L66.7242 17.9703C67.2939 18.9807 66.9521 20.2654 65.9694 20.8428L62.4944 22.8781C61.4974 23.4555 60.2299 23.1091 59.6602 22.1131L50.2463 5.5996C49.6767 4.60359 50.0042 3.30445 51.0012 2.72706Z" fill="#BCBDBD"/>
<path d="M23.3813 10.7527C23.3813 10.7527 25.247 7.85129 26.0731 7.04294C26.8849 6.24902 33.3222 2.3516 41.8531 4.77666C41.8531 4.77666 46.7523 6.84085 49.5864 5.7871C48.2904 2.98674 54.742 -0.708589 56.8071 2.71248L66.7195 17.9701" stroke="white" stroke-miterlimit="10"/>
<path d="M34.3052 12.8604C34.3052 12.8604 50.7546 20.1355 54.6996 26.0683C56.2804 28.6377 54.9702 32.5206 51.1676 31.2215" stroke="white" stroke-miterlimit="10"/>
</svg>
