<svg width="758" height="359" viewBox="0 0 758 359" fill="none" xmlns="http://www.w3.org/2000/svg">
<path d="M201.677 242.604L182.543 245.811L154.82 262.984H113.465L69.1953 296.838H125.383L135.443 301.446L154.406 290.927L201.677 242.604Z" fill="#E8E7E7"/>
<path d="M579.27 242.011L597.143 215.932L582.478 200.195L602.184 162.875L664.894 222.924L643.002 250.349L621.267 239.97L579.27 242.011Z" fill="#E8E7E7"/>
<path d="M310.166 241.959L295.89 231.986L276.07 250.461L289.574 257.73L307.351 245.685" fill="#E8E7E7"/>
<path d="M480.199 357.627H446.375V341.898H487.687V353.089L480.199 357.627Z" fill="#E8E7E7"/>
<path d="M484.998 332.331V326.154H450.102V337.835H487.684V332.331H484.998Z" fill="#E8E7E7"/>
<path d="M529.398 339.923H526.297V350.064H618.41V339.923H543.716" fill="#E8E7E7"/>
<path d="M531.914 265.014L550.648 298L555.935 293.868L539.616 243.192L531.914 265.014Z" fill="#E8E7E7"/>
<path d="M514.676 293.868H490.598V315.341H514.676V293.868Z" fill="#E8E7E7"/>
<path d="M658.734 293.084H627.282V316.503H658.734V293.084Z" fill="#E8E7E7"/>
<path d="M624.257 281.963H592.805V316.503H624.257V281.963Z" fill="#E8E7E7"/>
<path d="M588.085 296.291H556.633V316.503H588.085V296.291Z" fill="#E8E7E7"/>
<path d="M509 301V7H537V224.274V261.462" stroke="#CD2C2C" stroke-width="1.2" stroke-miterlimit="10"/>
<path d="M533.184 33.7061H512.192" stroke="#CD2C2C" stroke-width="1.2" stroke-miterlimit="10"/>
<path d="M533.184 69.8159H512.192" stroke="#CD2C2C" stroke-width="1.2" stroke-miterlimit="10"/>
<path d="M533.184 105.911H512.192" stroke="#CD2C2C" stroke-width="1.2" stroke-miterlimit="10"/>
<path d="M533.184 142.021H512.192" stroke="#CD2C2C" stroke-width="1.2" stroke-miterlimit="10"/>
<path d="M533.184 178.13H512.192" stroke="#CD2C2C" stroke-width="1.2" stroke-miterlimit="10"/>
<path d="M533.184 214.24H512.192" stroke="#CD2C2C" stroke-width="1.2" stroke-miterlimit="10"/>
<path d="M533.184 250.349H512.192" stroke="#CD2C2C" stroke-width="1.2" stroke-miterlimit="10"/>
<path d="M540.086 339.264L518.694 318.296H433.555V322.82H516.622L540.7 346.296V324.011L518.694 300.648H433.555V318.296" stroke="#CD2C2C" stroke-width="1.2" stroke-miterlimit="10"/>
<path d="M487.128 300.648V274.301H433.555C433.555 274.301 437.684 288.252 437.684 288.84C437.684 289.442 437.684 297.006 437.684 297.006" stroke="#CD2C2C" stroke-width="1.2" stroke-miterlimit="10"/>
<path d="M420.426 220.067L468.583 171.183L487.131 183.831L489.103 181.884" stroke="#CD2C2C" stroke-width="1.2" stroke-miterlimit="10"/>
<path d="M490.599 145.523L448.401 84.481L418.235 118.265L395.857 117.789L348.186 161.182L306.346 165.902L223.65 220.781L198.843 212.671L166.733 239.382L83.5519 241.763L18.0898 298.729" stroke="#CD2C2C" stroke-width="1.2" stroke-miterlimit="10"/>
<path d="M390.387 237.043L350.619 188.467L306.105 247.324" stroke="#CD2C2C" stroke-width="1.2" stroke-miterlimit="10"/>
<path d="M312.265 239.186L294.431 226.496L270.109 250.349" stroke="#CD2C2C" stroke-width="1.2" stroke-miterlimit="10"/>
<path d="M151.659 293.728L207.104 237.042L223.652 240.81" stroke="#CD2C2C" stroke-width="1.2" stroke-miterlimit="10"/>
<path d="M453.922 296.291H444.948C443.947 296.291 443.133 295.493 443.133 294.512V281.262C443.133 280.282 443.947 279.483 444.948 279.483H453.922C454.922 279.483 455.737 280.282 455.737 281.262V294.512C455.737 295.493 454.922 296.291 453.922 296.291Z" fill="#CD2C2C"/>
<path d="M479.427 296.291H464.579C463.336 296.291 462.336 295.311 462.336 294.092V281.696C462.336 280.478 463.336 279.497 464.579 279.497H479.427C480.67 279.497 481.67 280.478 481.67 281.696V294.092C481.67 295.311 480.67 296.291 479.427 296.291Z" fill="#CD2C2C"/>
<path d="M630.081 353.803C634.311 353.803 637.741 350.442 637.741 346.296C637.741 342.149 634.311 338.788 630.081 338.788C625.851 338.788 622.422 342.149 622.422 346.296C622.422 350.442 625.851 353.803 630.081 353.803Z" fill="#CD2C2C"/>
<path d="M543.716 329.907H614.037L637.758 337.821C640.144 339.894 641.645 342.92 641.645 346.296C641.645 352.557 636.472 357.627 630.084 357.627H518.623C512.235 357.627 507.062 352.557 507.062 346.296C507.062 342.92 508.563 339.894 510.949 337.821L522.624 332.765" stroke="#CD2C2C" stroke-width="1.2" stroke-miterlimit="10"/>
<path d="M517.453 315.341V303.631" stroke="#CD2C2C" stroke-width="1.2" stroke-miterlimit="10"/>
<path d="M494.617 315.341V311.237" stroke="#CD2C2C" stroke-width="1.2" stroke-miterlimit="10"/>
<path d="M471.781 315.341V311.237" stroke="#CD2C2C" stroke-width="1.2" stroke-miterlimit="10"/>
<path d="M448.945 315.341V311.237" stroke="#CD2C2C" stroke-width="1.2" stroke-miterlimit="10"/>
<path d="M494.617 306.6V302.51" stroke="#CD2C2C" stroke-width="1.2" stroke-miterlimit="10"/>
<path d="M471.781 306.6V302.51" stroke="#CD2C2C" stroke-width="1.2" stroke-miterlimit="10"/>
<path d="M448.945 306.6V302.51" stroke="#CD2C2C" stroke-width="1.2" stroke-miterlimit="10"/>
<path d="M523.766 314.29L536.741 327.008" stroke="#CD2C2C" stroke-width="1.2" stroke-miterlimit="10"/>
<path d="M575.367 335.329C576.172 335.329 576.825 334.689 576.825 333.9C576.825 333.111 576.172 332.471 575.367 332.471C574.562 332.471 573.91 333.111 573.91 333.9C573.91 334.689 574.562 335.329 575.367 335.329Z" fill="#CD2C2C"/>
<path d="M613.681 335.329C614.486 335.329 615.138 334.689 615.138 333.9C615.138 333.111 614.486 332.471 613.681 332.471C612.876 332.471 612.223 333.111 612.223 333.9C612.223 334.689 612.876 335.329 613.681 335.329Z" fill="#CD2C2C"/>
<path d="M523.769 339.923H512.98V350.064H523.769" fill="#E8E7E7"/>
<path d="M446.377 326.154V338.788L443.133 341.982V357.627" stroke="#CD2C2C" stroke-width="1.2" stroke-miterlimit="10"/>
<path d="M758 358H0" stroke="#CD2C2C" stroke-width="1.2" stroke-miterlimit="10"/>
<path d="M501.605 327.989L510.965 337.835" stroke="#CD2C2C" stroke-width="1.2" stroke-miterlimit="10"/>
<path d="M450.102 338.073H487.684" stroke="#CD2C2C" stroke-width="1.2" stroke-miterlimit="10"/>
<path d="M448.402 341.898H487.685" stroke="#CD2C2C" stroke-width="1.2" stroke-miterlimit="10"/>
<path d="M495.828 331.967H490.598V351.548H495.828V331.967Z" stroke="#CD2C2C" stroke-width="1.2" stroke-miterlimit="10"/>
<path d="M490.603 351.548L479.043 357.627" stroke="#CD2C2C" stroke-width="1.2" stroke-miterlimit="10"/>
<path d="M495.828 351.548L507.374 357.627" stroke="#CD2C2C" stroke-width="1.2" stroke-miterlimit="10"/>
<path d="M667.511 339.923V351.548H662.281V339.923" fill="#E8E7E7"/>
<path d="M679.056 357.627L667.509 351.548H662.279L650.719 357.627" stroke="#CD2C2C" stroke-width="1.2" stroke-miterlimit="10"/>
<path d="M484.999 322.82V331.967H501.419V322.82" stroke="#CD2C2C" stroke-width="1.2" stroke-miterlimit="10"/>
<path d="M642.5 337.835H671.323V326.154" stroke="#CD2C2C" stroke-width="1.2" stroke-miterlimit="10"/>
<path d="M540.702 319.725H674.784V323.479H543.717" stroke="#CD2C2C" stroke-width="1.2" stroke-miterlimit="10"/>
<path d="M513.71 308.449H436.73" stroke="#CD2C2C" stroke-width="1.2" stroke-miterlimit="10"/>
<path d="M591.758 317.512V311.671" stroke="#CD2C2C" stroke-width="1.2" stroke-miterlimit="10"/>
<path d="M568.922 317.512V311.671" stroke="#CD2C2C" stroke-width="1.2" stroke-miterlimit="10"/>
<path d="M546.086 317.512V311.671" stroke="#CD2C2C" stroke-width="1.2" stroke-miterlimit="10"/>
<path d="M637.414 317.512V311.671" stroke="#CD2C2C" stroke-width="1.2" stroke-miterlimit="10"/>
<path d="M614.579 317.512V311.671" stroke="#CD2C2C" stroke-width="1.2" stroke-miterlimit="10"/>
<path d="M660.25 317.512V311.671" stroke="#CD2C2C" stroke-width="1.2" stroke-miterlimit="10"/>
<path d="M591.758 306.74V302.665" stroke="#CD2C2C" stroke-width="1.2" stroke-miterlimit="10"/>
<path d="M568.922 306.74V302.665" stroke="#CD2C2C" stroke-width="1.2" stroke-miterlimit="10"/>
<path d="M546.086 306.74V302.665" stroke="#CD2C2C" stroke-width="1.2" stroke-miterlimit="10"/>
<path d="M637.414 306.74V302.665" stroke="#CD2C2C" stroke-width="1.2" stroke-miterlimit="10"/>
<path d="M614.579 306.74V302.665" stroke="#CD2C2C" stroke-width="1.2" stroke-miterlimit="10"/>
<path d="M660.25 306.74V302.665" stroke="#CD2C2C" stroke-width="1.2" stroke-miterlimit="10"/>
<path d="M667.511 309.178H537.301" stroke="#CD2C2C" stroke-width="1.2" stroke-miterlimit="10"/>
<path d="M673.282 315.341V300.648H533.184V308.87" stroke="#CD2C2C" stroke-width="1.2" stroke-miterlimit="10"/>
<path d="M676.426 317.218L692.845 268.936H684.643L673.282 296.291" fill="#E8E7E7"/>
<path d="M680.668 278.489L688.642 281.29" stroke="#CD2C2C" stroke-width="1.2" stroke-miterlimit="10"/>
<path d="M617.538 286.417H589.602C587.544 286.417 585.872 284.778 585.872 282.761V278.447C585.872 276.43 587.544 274.791 589.602 274.791H617.538C619.596 274.791 621.268 276.43 621.268 278.447V282.761C621.268 284.778 619.596 286.417 617.538 286.417Z" stroke="#CD2C2C" stroke-width="1.2" stroke-miterlimit="10"/>
<path d="M594.09 276.752V288.854" stroke="#CD2C2C" stroke-width="1.2" stroke-miterlimit="10"/>
<path d="M614.207 276.752V288.854" stroke="#CD2C2C" stroke-width="1.2" stroke-miterlimit="10"/>
<path d="M528.669 311.237V262.045H540.487" stroke="#CD2C2C" stroke-width="1.2" stroke-miterlimit="10"/>
<path d="M536.684 226.916L557.404 291.263L565.649 287.775L567.821 292.776L556.146 297.552" stroke="#CD2C2C" stroke-width="1.2" stroke-miterlimit="10"/>
<path d="M617.535 286.417H627.281V290.437" stroke="#CD2C2C" stroke-width="1.2" stroke-miterlimit="10"/>
<path d="M573.199 297.3V286.389H589.604" stroke="#CD2C2C" stroke-width="1.2" stroke-miterlimit="10"/>
<path d="M663.121 297.3V290.437H627.282" stroke="#CD2C2C" stroke-width="1.2" stroke-miterlimit="10"/>
<path d="M535.086 270.589L550.648 298" stroke="#CD2C2C" stroke-width="1.2" stroke-miterlimit="10"/>
<path d="M504 7V294" stroke="#CD2C2C" stroke-width="1.2" stroke-miterlimit="10"/>
<path d="M498.375 42.3623V293.868" stroke="#CD2C2C" stroke-width="1.2" stroke-miterlimit="10"/>
<path d="M498.374 22.2207H477.84V39.5327H498.374V22.2207Z" stroke="#CD2C2C" stroke-width="1.2" stroke-miterlimit="10"/>
<path d="M480.098 23.9153V28.6638" stroke="#CD2C2C" stroke-width="1.2" stroke-miterlimit="10"/>
<path d="M482.669 23.9153V28.6638" stroke="#CD2C2C" stroke-width="1.2" stroke-miterlimit="10"/>
<path d="M536 1H469.266V7.07891H500.714" stroke="#CD2C2C" stroke-width="1.2" stroke-miterlimit="10"/>
<path d="M486.412 7.48267H474.18V13.0293H486.412V7.48267Z" fill="#CD2C2C"/>
<path d="M496.189 42.0544H482.028V46.1724H496.189V42.0544Z" fill="#CD2C2C"/>
<path d="M533.17 37.6841H512.192V65.824H533.17V37.6841Z" fill="#E8E7E7"/>
<path d="M533.17 73.7937H512.192V101.933H533.17V73.7937Z" fill="#E8E7E7"/>
<path d="M533.17 109.903H512.192V138.043H533.17V109.903Z" fill="#E8E7E7"/>
<path d="M533.17 146.013H512.192V174.152H533.17V146.013Z" fill="#E8E7E7"/>
<path d="M533.17 182.122H512.192V210.262H533.17V182.122Z" fill="#E8E7E7"/>
<path d="M533.17 218.218H512.192V246.357H533.17V218.218Z" fill="#E8E7E7"/>
<path d="M533.184 37.6841L512.192 65.824" stroke="#CD2C2C" stroke-width="1.2" stroke-miterlimit="10"/>
<path d="M533.184 73.7937L512.192 101.933" stroke="#CD2C2C" stroke-width="1.2" stroke-miterlimit="10"/>
<path d="M533.184 109.903L512.192 138.043" stroke="#CD2C2C" stroke-width="1.2" stroke-miterlimit="10"/>
<path d="M533.184 146.013L512.192 174.138" stroke="#CD2C2C" stroke-width="1.2" stroke-miterlimit="10"/>
<path d="M533.184 182.122L512.192 210.248" stroke="#CD2C2C" stroke-width="1.2" stroke-miterlimit="10"/>
<path d="M533.184 218.218L512.192 246.357" stroke="#CD2C2C" stroke-width="1.2" stroke-miterlimit="10"/>
<path d="M493.644 160.075L447.173 94.1875L419.787 123.306L398.706 122.407L346.004 173.666L382.969 217.895L400.96 211.48L403.747 224.925L465.615 163.774L485.37 177.15L493.644 168.802V160.075Z" fill="#E8E7E7"/>
<path d="M388.557 240.811L355.075 200.513L322.895 247.324L348.245 251.778L360.105 248.43L378.839 253.683L388.557 240.811Z" fill="#E8E7E7"/>
<path d="M45.6406 357.627L73.7632 284.288L101.9 357.627" fill="#CD2C2C"/>
<path d="M92.0862 357.627L112.121 310.802L132.169 357.627" fill="#CD2C2C"/>
<path d="M265.718 338.214H234.895V352.333H265.718V338.214Z" fill="#E8E7E7"/>
<path d="M196.953 315.607H191.409C191.323 315.607 191.266 315.551 191.266 315.467V304.724C191.266 304.64 191.323 304.583 191.409 304.583H196.953C197.039 304.583 197.096 304.64 197.096 304.724V315.467C197.096 315.537 197.039 315.607 196.953 315.607Z" fill="#CD2C2C"/>
<path d="M218.405 357.627C224.805 357.627 229.994 352.541 229.994 346.268C229.994 339.994 224.805 334.908 218.405 334.908C212.004 334.908 206.815 339.994 206.815 346.268C206.815 352.541 212.004 357.627 218.405 357.627Z" stroke="#CD2C2C" stroke-width="1.2" stroke-miterlimit="10"/>
<path d="M204 343.508C204 335.706 210.445 329.389 218.404 329.389C226.364 329.389 232.808 335.706 232.808 343.508C232.808 343.508 232.623 346.898 236.238 346.898C239.853 346.898 241.811 347.752 243.126 344.965C245.855 344.965 250.642 344.965 250.642 344.965" stroke="#CD2C2C" stroke-width="1.2" stroke-miterlimit="10"/>
<path d="M218.406 351.52C221.365 351.52 223.764 349.168 223.764 346.267C223.764 343.367 221.365 341.015 218.406 341.015C215.446 341.015 213.047 343.367 213.047 346.267C213.047 349.168 215.446 351.52 218.406 351.52Z" fill="#CD2C2C"/>
<path d="M300.871 357.627C307.271 357.627 312.46 352.541 312.46 346.268C312.46 339.994 307.271 334.908 300.871 334.908C294.47 334.908 289.281 339.994 289.281 346.268C289.281 352.541 294.47 357.627 300.871 357.627Z" stroke="#CD2C2C" stroke-width="1.2" stroke-miterlimit="10"/>
<path d="M300.87 351.52C303.83 351.52 306.229 349.168 306.229 346.267C306.229 343.367 303.83 341.015 300.87 341.015C297.91 341.015 295.511 343.367 295.511 346.267C295.511 349.168 297.91 351.52 300.87 351.52Z" fill="#CD2C2C"/>
<path d="M330.183 357.627C336.583 357.627 341.772 352.541 341.772 346.268C341.772 339.994 336.583 334.908 330.183 334.908C323.782 334.908 318.594 339.994 318.594 346.268C318.594 352.541 323.782 357.627 330.183 357.627Z" stroke="#CD2C2C" stroke-width="1.2" stroke-miterlimit="10"/>
<path d="M330.182 351.52C333.142 351.52 335.541 349.168 335.541 346.267C335.541 343.367 333.142 341.015 330.182 341.015C327.223 341.015 324.823 343.367 324.823 346.267C324.823 349.168 327.223 351.52 330.182 351.52Z" fill="#CD2C2C"/>
<path d="M232.04 338.76V296.88L228.539 293.448H203.46C196.73 293.448 191.285 298.799 191.285 305.382V334.614" stroke="#CD2C2C" stroke-width="1.2" stroke-miterlimit="10"/>
<path d="M204.472 344.979H187.41V338.158C187.41 336.197 189.025 334.614 191.026 334.614H206.816" stroke="#CD2C2C" stroke-width="1.2" stroke-miterlimit="10"/>
<path d="M224.664 315.607H197.47C197.27 315.607 197.099 315.453 197.099 315.243V300.941C197.099 300.745 197.256 300.577 197.47 300.577H224.664C224.864 300.577 225.035 300.731 225.035 300.941V315.243C225.035 315.439 224.864 315.607 224.664 315.607Z" fill="#E8E7E7"/>
<path d="M232.793 301.446C235.108 301.446 236.994 303.281 236.994 305.564V322.918" stroke="#CD2C2C" stroke-width="1.2" stroke-miterlimit="10"/>
<path d="M187.41 339.979H191.997" stroke="#CD2C2C" stroke-width="1.2" stroke-miterlimit="10"/>
<path d="M195.641 344.615V337.611" stroke="#CD2C2C" stroke-width="1.2" stroke-miterlimit="10"/>
<path d="M367.234 334.894H385.64V329.403H374.808" stroke="#CD2C2C" stroke-width="1.2" stroke-miterlimit="10"/>
<path d="M352.072 329.403H240.925V334.894H347.571" stroke="#CD2C2C" stroke-width="1.2" stroke-miterlimit="10"/>
<path d="M247.27 329.403V300.199C247.27 297.342 249.642 295.017 252.557 295.017H376.207C378.994 295.017 381.252 297.23 381.252 299.961V326.952" stroke="#CD2C2C" stroke-width="1.2" stroke-miterlimit="10"/>
<path d="M247.27 315.607H365.047V298.729" stroke="#CD2C2C" stroke-width="1.2" stroke-miterlimit="10"/>
<path d="M251.57 298.729H376.992" stroke="#CD2C2C" stroke-width="1.2" stroke-miterlimit="10"/>
<path d="M247.269 301.446C245.254 301.446 243.625 303.043 243.625 305.018V329.389" stroke="#CD2C2C" stroke-width="1.2" stroke-miterlimit="10"/>
<path d="M215.547 322.176V300.942H202.529C199.528 300.942 197.099 303.323 197.099 306.264V328.745V330.706H205.23C205.23 330.706 208.545 325.986 215.547 325.986C215.547 324.711 215.547 322.176 215.547 322.176Z" stroke="#CD2C2C" stroke-width="1.2" stroke-miterlimit="10"/>
<path d="M207.675 318.884H211.076" stroke="#CD2C2C" stroke-miterlimit="10"/>
<path d="M271.991 337.611H250.628V350.119H271.991V337.611Z" stroke="#CD2C2C" stroke-width="1.2" stroke-miterlimit="10"/>
<path d="M243.625 344.979V338.76" stroke="#CD2C2C" stroke-width="1.2" stroke-miterlimit="10"/>
<path d="M240.927 329.403H232.039" stroke="#CD2C2C" stroke-width="1.2" stroke-miterlimit="10"/>
<path d="M243.626 322.82C243.626 322.82 234.366 318.968 234.366 329.403" stroke="#CD2C2C" stroke-width="1.2" stroke-miterlimit="10"/>
<path d="M354.858 343.634H353.001" stroke="#CD2C2C" stroke-width="1.2" stroke-miterlimit="10"/>
<path d="M356.873 351.52V337.611L374.807 325.972V306.026H367.962V323.324L350.457 334.894V338.214V351.52H356.873Z" stroke="#CD2C2C" stroke-width="1.2" stroke-miterlimit="10"/>
<path d="M344.699 334.894V351.52" stroke="#CD2C2C" stroke-width="1.2" stroke-miterlimit="10"/>
<path d="M287.082 334.614V351.128" stroke="#CD2C2C" stroke-width="1.2" stroke-miterlimit="10"/>
<path d="M284.85 344.979H274.504" stroke="#CD2C2C" stroke-width="1.2" stroke-miterlimit="10"/>
<path d="M326.107 303.057H284.852V311.741H326.107V303.057Z" fill="#CD2C2C"/>
<path d="M253.757 342.864H268.347" stroke="#CD2C2C" stroke-width="1.2" stroke-miterlimit="10"/>
<path d="M600.661 152.358L575.368 200.513L589.6 215.654L572.352 239.97" stroke="#CD2C2C" stroke-width="1.2" stroke-miterlimit="10"/>
<path d="M329.198 163.325L321.981 140.886L315.594 164.852L329.198 163.325Z" fill="#CD2C2C"/>
<path d="M343.346 161.532L337.787 144.248L332.871 162.708L343.346 161.532Z" fill="#CD2C2C"/>
<path d="M307.075 171.183L253.76 228.891L232.039 222.924L307.075 171.183Z" fill="#E8E7E7"/>
<path d="M533.17 11.0151H512.192V21.7446H533.17V11.0151Z" fill="#CD2C2C"/>
<path d="M138.285 240.194L144.973 220.781L151.661 239.802" fill="#CD2C2C"/>
<path d="M540.487 131.474L545.689 126.361L574.64 159.263L600.662 152.358L655.678 206.284L670.468 197.047L746.543 271.238" stroke="#CD2C2C" stroke-width="1.2" stroke-miterlimit="10"/>
</svg>
