<svg width="325" height="339" viewBox="0 0 325 339" fill="none" xmlns="http://www.w3.org/2000/svg">
<g clip-path="url(#clip0)">
<path d="M117.594 338.479H199.441" stroke="#CD2C2C" stroke-width="1.2" stroke-miterlimit="10"/>
<path d="M198.114 338.479H314.554" stroke="#CD2C2C" stroke-width="1.2" stroke-miterlimit="10"/>
<path d="M0.519531 325.288H57.2028" stroke="#CD2C2C" stroke-width="1.2" stroke-miterlimit="10"/>
<path d="M104.303 205.535H90.7656V211.943H104.303V205.535Z" fill="#E8E7E7"/>
<path d="M219.562 100.18L217.235 99.0332L194.434 145.198L196.761 146.344L219.562 100.18Z" fill="#E8E7E7"/>
<path d="M181.321 109.906L182.059 112.389L223.286 100.188L222.548 97.7045L181.321 109.906Z" fill="#E8E7E7"/>
<path d="M177.484 172.691L191.672 143.886L199.452 147.707L164.668 218.066L156.957 214.245" stroke="#CD2C2C" stroke-width="1.2" stroke-miterlimit="10"/>
<path d="M108.704 209.703V202.07L119.861 177.155H169.051L166.872 231.43L110.866 237.509L108.704 209.703Z" fill="#E8E7E7"/>
<path d="M110.501 206.681C110.501 195.947 119.219 187.237 129.951 187.237C140.683 187.237 149.393 195.947 149.393 206.681" stroke="#CD2C2C" stroke-width="3" stroke-miterlimit="10"/>
<path d="M137.653 268.98H107.332V206.681H150.834V233.167" fill="white"/>
<path d="M137.653 268.98H107.332V206.681H150.834V233.167" stroke="#CD2C2C" stroke-width="1.2" stroke-miterlimit="10"/>
<path d="M131.742 206.681L136.066 117.096C136.136 115.22 137.221 113.492 138.802 112.485L175.462 89.9409L150.836 206.681H131.742Z" fill="white" stroke="#CD2C2C" stroke-width="1.2" stroke-miterlimit="10"/>
<path d="M259.512 46.59L266.502 43.9935L262.109 37.2199L252.097 40.6067L277.017 32.2526L283.347 0L284.068 0.503676C291.414 5.47096 297.683 11.8798 302.077 19.5913C309.423 32.4089 311.724 47.745 307.625 62.4385C307.478 63.0116 307.339 63.5153 307.122 64.0971L267.874 66.9802L252.097 40.5546" fill="#E8E7E7"/>
<path d="M0.519531 211.943H107.33V268.911H6.28511C3.11578 268.911 0.519531 266.314 0.519531 263.153V226.932" fill="white"/>
<path d="M0.519531 211.943H107.33V268.911H6.28511C3.11578 268.911 0.519531 266.314 0.519531 263.153V226.932" stroke="#CD2C2C" stroke-width="1.2" stroke-miterlimit="10"/>
<path d="M12.1216 194.87H50.0754V211.935H12.1216V194.87Z" stroke="#CD2C2C" stroke-width="1.2" stroke-miterlimit="10"/>
<path d="M101.568 211.943H67.4258V202.217C67.4258 199.048 70.022 196.46 73.1914 196.46H95.8022C98.9715 196.46 101.568 199.056 101.568 202.217V211.943V211.943Z" stroke="#CD2C2C" stroke-width="1.2" stroke-miterlimit="10"/>
<path d="M18.0273 194.87V183.208" stroke="#CD2C2C" stroke-width="1.2" stroke-miterlimit="10"/>
<path d="M31.1287 194.87V183.208" stroke="#CD2C2C" stroke-width="1.2" stroke-miterlimit="10"/>
<path d="M44.1719 194.87V183.208" stroke="#CD2C2C" stroke-width="1.2" stroke-miterlimit="10"/>
<path d="M18.0273 222.668H44.1722" stroke="#CD2C2C" stroke-width="1.2" stroke-miterlimit="10"/>
<path d="M18.0273 234.409H44.1722" stroke="#CD2C2C" stroke-width="1.2" stroke-miterlimit="10"/>
<path d="M18.0273 246.15H44.1722" stroke="#CD2C2C" stroke-width="1.2" stroke-miterlimit="10"/>
<path d="M118.777 238.013H139.374" stroke="#CD2C2C" stroke-width="1.2" stroke-miterlimit="10"/>
<path d="M61.5195 211.943V262.858" stroke="#CD2C2C" stroke-width="1.2" stroke-miterlimit="10"/>
<path d="M71.3242 262.858V241.539H107.333V268.98H71.3242" stroke="#CD2C2C" stroke-width="1.2" stroke-miterlimit="10"/>
<path d="M100.343 250.761H78.375V262.858H100.343V250.761Z" fill="#E8E7E7"/>
<path d="M94.8704 221.305H83.8516V233.402H94.8704V221.305Z" fill="#CD2C2C"/>
<path d="M78.375 246.871H100.343" stroke="#CD2C2C" stroke-width="1.2" stroke-miterlimit="10"/>
<path d="M123.316 206.681L123.751 123.001C123.751 122.28 123.889 121.56 124.185 120.839L130.81 104.565C131.244 103.41 132.104 102.472 133.189 101.829L149.539 91.8948L155.809 102.125" stroke="#CD2C2C" stroke-width="1.2" stroke-miterlimit="10"/>
<path d="M131.75 276.683H97.5391V268.98H137.655" stroke="#CD2C2C" stroke-width="1.2" stroke-miterlimit="10"/>
<path d="M101.566 284.464V276.683" stroke="#CD2C2C" stroke-width="1.2" stroke-miterlimit="10"/>
<path d="M146.441 325.288H33.7946C28.1766 325.288 23.5659 320.677 23.5659 315.067C23.5659 298.142 37.2505 284.464 54.1739 284.464H127.781" stroke="#CD2C2C" stroke-width="1.2" stroke-miterlimit="10"/>
<path d="M222.06 302.388C223.788 306.278 224.796 310.525 224.796 315.067C224.796 320.685 220.185 325.288 214.567 325.288H184.68" stroke="#CD2C2C" stroke-width="1.2" stroke-miterlimit="10"/>
<path d="M142.254 284.464H194.179" stroke="#CD2C2C" stroke-width="1.2" stroke-miterlimit="10"/>
<path d="M199.234 316.508H49.1379C43.5199 316.508 38.9092 311.975 38.9092 306.278C38.9092 300.66 43.4504 296.057 49.1379 296.057H199.234C204.852 296.057 209.463 300.59 209.463 306.278C209.454 311.966 204.852 316.508 199.234 316.508Z" fill="#E8E7E7"/>
<path d="M50.0741 313.408C54.0163 313.408 57.203 310.212 57.203 306.278C57.203 302.345 54.0076 299.149 50.0741 299.149C46.1407 299.149 42.9453 302.345 42.9453 306.278C42.9453 310.221 46.132 313.408 50.0741 313.408Z" fill="white"/>
<path d="M157.762 232.733L165.672 136.54C165.672 136.392 165.741 136.323 165.889 136.323L174.32 136.974L167.765 222.963L167.313 231.865" fill="white"/>
<path d="M157.762 232.733L165.672 136.54C165.672 136.392 165.741 136.323 165.889 136.323L174.32 136.974L167.765 222.963L167.313 231.865" stroke="#CD2C2C" stroke-width="1.2" stroke-miterlimit="10"/>
<path d="M293.439 82.6028L252.168 94.8473" stroke="#CD2C2C" stroke-width="1.2" stroke-miterlimit="10"/>
<path d="M252.164 94.8474L224.144 103.054L221.695 94.7693" stroke="#CD2C2C" stroke-width="1.2" stroke-miterlimit="10"/>
<path d="M209.238 308.293H182.59V316.5" stroke="#CD2C2C" stroke-width="1.2" stroke-miterlimit="10"/>
<path d="M208.379 92.6068L216.011 101.465L219.111 101.03L231.215 85.8333L208.379 92.6068Z" fill="white" stroke="#CD2C2C" stroke-width="1.2" stroke-miterlimit="10"/>
<path d="M186.341 99.1634L273.632 73.2415L257.855 62.8032C257.855 62.8032 234.81 56.8981 213.198 64.8874C189.146 73.8146 175.531 90.0191 175.531 90.0191H181.366C185.256 90.0191 188.06 93.8314 186.836 97.5048L174.306 137.043L165.875 136.392" fill="white"/>
<path d="M186.341 99.1634L273.632 73.2415L257.855 62.8032C257.855 62.8032 234.81 56.8981 213.198 64.8874C189.146 73.8146 175.531 90.0191 175.531 90.0191H181.366C185.256 90.0191 188.06 93.8314 186.836 97.5048L174.306 137.043L165.875 136.392" stroke="#CD2C2C" stroke-width="1.2" stroke-miterlimit="10"/>
<path d="M237.83 51.6355L280.681 86.3457L306.036 78.7124L306.974 64.019L296.024 61.9348C284.068 59.9896 272.762 55.4565 262.751 48.8306L267.796 45.9475L262.03 37.1592L236.675 45.7304L237.83 51.6355Z" fill="white"/>
<path d="M267.865 46.0169L262.1 37.2286L236.745 45.7998L237.822 51.6355L280.673 86.3457L306.097 78.7124" stroke="#CD2C2C" stroke-width="1.2" stroke-miterlimit="10"/>
<path d="M282.133 6.12231C287.82 10.5859 292.717 16.135 296.321 22.3963C303.302 34.5626 305.681 49.1171 302.373 63.1593" stroke="#CD2C2C" stroke-width="1.2" stroke-miterlimit="10"/>
<path d="M152.232 119.467L143.844 118.642L140.571 151.754L148.959 152.579L152.232 119.467Z" fill="#E8E7E7"/>
<path d="M153.422 144.824L155.219 126.822" stroke="#CD2C2C" stroke-width="1.2" stroke-miterlimit="10"/>
<path d="M168.478 94.2655L163.225 84.5394C160.993 80.4318 162.504 75.3256 166.611 73.0851C170.719 70.8533 175.833 72.3643 178.064 76.4719L181.954 83.6015" stroke="#CD2C2C" stroke-width="1.2" stroke-miterlimit="10"/>
<path d="M260.233 47.6756C262.221 47.6756 263.836 46.0603 263.836 44.0717C263.836 42.083 262.221 40.4678 260.233 40.4678C258.244 40.4678 256.629 42.083 256.629 44.0717C256.629 46.0603 258.244 47.6756 260.233 47.6756Z" fill="#CD2C2C"/>
<path d="M262.831 66.9715C264.263 66.9715 265.427 65.8078 265.427 64.375C265.427 62.9421 264.263 61.7784 262.831 61.7784C261.398 61.7784 260.234 62.9421 260.234 64.375C260.234 65.8165 261.398 66.9715 262.831 66.9715Z" stroke="#CD2C2C" stroke-width="1.2" stroke-miterlimit="10"/>
<path d="M248.927 55.8126C249.605 55.8126 250.152 55.2655 250.152 54.5881C250.152 53.9107 249.605 53.3636 248.927 53.3636C248.25 53.3636 247.703 53.9107 247.703 54.5881C247.703 55.2655 248.25 55.8126 248.927 55.8126Z" stroke="#CD2C2C" stroke-width="1.2" stroke-miterlimit="10"/>
<path d="M180.285 100.753C182.395 100.753 184.106 99.0418 184.106 96.9402C184.106 94.83 182.395 93.1193 180.285 93.1193C178.175 93.1193 176.465 94.83 176.465 96.9402C176.474 99.0418 178.175 100.753 180.285 100.753Z" stroke="#CD2C2C" stroke-width="1.2" stroke-miterlimit="10"/>
<path d="M175.756 116.089C177.189 116.089 178.353 114.925 178.353 113.492C178.353 112.059 177.189 110.896 175.756 110.896C174.324 110.896 173.16 112.059 173.16 113.492C173.16 114.925 174.324 116.089 175.756 116.089Z" fill="#CD2C2C"/>
<path d="M171.717 132.58C173.15 132.58 174.313 131.416 174.313 129.983C174.313 128.55 173.15 127.387 171.717 127.387C170.284 127.387 169.121 128.55 169.121 129.983C169.121 131.416 170.284 132.58 171.717 132.58Z" fill="#CD2C2C"/>
<path d="M216.01 101.473L194.406 145.189" stroke="#CD2C2C" stroke-width="1.2" stroke-miterlimit="10"/>
<path d="M183.102 109.393L214.717 100.032" stroke="#CD2C2C" stroke-width="1.2" stroke-miterlimit="10"/>
<path d="M286.664 8.2065L288.461 5.18445" stroke="#CD2C2C" stroke-width="1.2" stroke-miterlimit="10"/>
<path d="M301.641 30.4637L305.461 28.9526" stroke="#CD2C2C" stroke-width="1.2" stroke-miterlimit="10"/>
<path d="M304.161 59.3383L307.33 59.9114" stroke="#CD2C2C" stroke-width="1.2" stroke-miterlimit="10"/>
<path d="M295.234 17.785L298.334 15.7703" stroke="#CD2C2C" stroke-width="1.2" stroke-miterlimit="10"/>
<path d="M304.742 44.3582L308.632 44.0022" stroke="#CD2C2C" stroke-width="1.2" stroke-miterlimit="10"/>
<path d="M271.754 234.34V225.334H285.004V258.177H271.754" stroke="#CD2C2C" stroke-width="1.2" stroke-miterlimit="10"/>
<path d="M299.56 244.934H287.387V230.961H295.236L299.56 244.934Z" fill="#E8E7E7"/>
<path d="M164.876 338.479C182.894 338.479 197.499 323.872 197.499 305.853C197.499 287.833 182.894 273.227 164.876 273.227C146.859 273.227 132.254 287.833 132.254 305.853C132.254 323.872 146.859 338.479 164.876 338.479Z" fill="white" stroke="#CD2C2C" stroke-width="1.2" stroke-miterlimit="10"/>
<path d="M164.876 321.91C173.75 321.91 180.94 314.719 180.94 305.853C180.94 296.986 173.75 289.796 164.876 289.796C156.011 289.796 148.812 296.986 148.812 305.853C148.812 314.728 156.011 321.91 164.876 321.91Z" stroke="#CD2C2C" stroke-width="1.2" stroke-miterlimit="10"/>
<path d="M164.874 314.138C169.45 314.138 173.157 310.429 173.157 305.853C173.157 301.276 169.45 297.568 164.874 297.568C160.298 297.568 156.59 301.276 156.59 305.853C156.59 310.429 160.298 314.138 164.874 314.138Z" fill="#CD2C2C"/>
<path d="M161.923 304.628C162.426 303.473 163.581 302.683 164.875 302.683C166.672 302.683 168.114 304.125 168.114 305.922C168.114 307.72 166.672 309.162 164.875 309.162" stroke="white" stroke-width="1.2" stroke-miterlimit="10"/>
<path d="M262.466 338.479C280.484 338.479 295.089 323.872 295.089 305.853C295.089 287.833 280.484 273.227 262.466 273.227C244.449 273.227 229.844 287.833 229.844 305.853C229.844 323.872 244.449 338.479 262.466 338.479Z" fill="white" stroke="#CD2C2C" stroke-width="1.2" stroke-miterlimit="10"/>
<path d="M262.466 321.91C271.332 321.91 278.53 314.719 278.53 305.853C278.53 296.986 271.34 289.796 262.466 289.796C253.592 289.796 246.402 296.986 246.402 305.853C246.411 314.728 253.601 321.91 262.466 321.91Z" stroke="#CD2C2C" stroke-width="1.2" stroke-miterlimit="10"/>
<path d="M262.464 314.138C267.04 314.138 270.748 310.429 270.748 305.853C270.748 301.276 267.04 297.568 262.464 297.568C257.888 297.568 254.18 301.276 254.18 305.853C254.18 310.429 257.888 314.138 262.464 314.138Z" fill="#CD2C2C"/>
<path d="M259.441 304.776C259.876 303.552 261.1 302.692 262.463 302.692C264.261 302.692 265.702 304.133 265.702 305.931C265.702 307.729 264.261 309.17 262.463 309.17" stroke="white" stroke-width="1.2" stroke-miterlimit="10"/>
<path d="M194.406 275.033L112.446 257.465L110.718 252.211L122.961 238.821L214.646 229.025L235.39 217.067H289.555L298.126 208.426V217.857L253.251 227.149L227.897 242.485L206.649 274.095L195.274 270.926L194.406 275.033Z" fill="#E8E7E7"/>
<path d="M298.117 208.418L289.547 217.058H235.381L214.637 229.016L122.961 238.812L110.718 252.203" stroke="#CD2C2C" stroke-width="1.2" stroke-miterlimit="10"/>
<path d="M120.148 241.764L241.286 234.348" stroke="#CD2C2C" stroke-width="1.2" stroke-miterlimit="10"/>
<path d="M201.821 236.789L194.406 275.025" stroke="#CD2C2C" stroke-width="1.2" stroke-miterlimit="10"/>
<path d="M186.626 243.996L182.449 265.533" stroke="#CD2C2C" stroke-width="1.2" stroke-miterlimit="10"/>
<path d="M170.71 245.073L167.323 262.354" stroke="#CD2C2C" stroke-width="1.2" stroke-miterlimit="10"/>
<path d="M154.646 245.942L152.05 259.046" stroke="#CD2C2C" stroke-width="1.2" stroke-miterlimit="10"/>
<path d="M136.785 256.024L138.582 246.949" stroke="#CD2C2C" stroke-width="1.2" stroke-miterlimit="10"/>
<path d="M204.417 244.926H218.753" stroke="#CD2C2C" stroke-width="1.2" stroke-miterlimit="10"/>
<path d="M201.75 255.59H213.993" stroke="#CD2C2C" stroke-width="1.2" stroke-miterlimit="10"/>
<path d="M241.286 240.827H288.462V258.186H239.133" stroke="#CD2C2C" stroke-width="1.2" stroke-miterlimit="10"/>
<path d="M192.602 288.789H210.532" stroke="#CD2C2C" stroke-width="1.2" stroke-miterlimit="10"/>
<path d="M146.727 278.707L137.792 262.936" stroke="#CD2C2C" stroke-width="1.2" stroke-miterlimit="10"/>
<path d="M246.546 277.334L238.41 262.927" stroke="#CD2C2C" stroke-width="1.2" stroke-miterlimit="10"/>
<path d="M284.938 261.712V273.739H292.57" stroke="#CD2C2C" stroke-width="1.2" stroke-miterlimit="10"/>
<path d="M293.793 263.44H305.602L310.212 278.35H298.334" stroke="#CD2C2C" stroke-width="1.2" stroke-miterlimit="10"/>
<path d="M324.477 303.265H306.043V311.619H324.477V303.265Z" stroke="#CD2C2C" stroke-width="1.2" stroke-miterlimit="10"/>
<path d="M292.57 259.836H320.947V303.265" stroke="#CD2C2C" stroke-width="1.2" stroke-miterlimit="10"/>
<path d="M254.543 244.926H241.293V258.177H254.543V244.926Z" fill="#E8E7E7"/>
<path d="M276.149 244.926H262.898V258.177H276.149V244.926Z" fill="#E8E7E7"/>
<path d="M308.269 259.836H284.938V227.427H298.188L308.269 259.836Z" stroke="#CD2C2C" stroke-width="1.2" stroke-miterlimit="10"/>
<path d="M319.287 259.836H301.356V250.119C301.356 246.949 303.952 244.361 307.122 244.361H319.295V259.836H319.287Z" stroke="#CD2C2C" stroke-width="1.2" stroke-miterlimit="10"/>
<path d="M239.133 258.177H292.065L309.926 315.649H306.54L289.113 261.712H239.054L221.766 287.92L220.829 284.247" fill="white"/>
<path d="M239.133 258.177H292.065L309.926 315.649H306.54L289.113 261.712H239.054L221.766 287.92L220.829 284.247" stroke="#CD2C2C" stroke-width="1.2" stroke-miterlimit="10"/>
<path d="M221.558 282.953H210.54V311.619H221.558V282.953Z" fill="white" stroke="#CD2C2C" stroke-width="1.2" stroke-miterlimit="10"/>
</g>
<defs>
<clipPath id="clip0">
<rect width="325" height="339" fill="white"/>
</clipPath>
</defs>
</svg>
