<svg xmlns="http://www.w3.org/2000/svg" width="96" height="48" fill="none" viewBox="0 0 96 48"><path fill="#000" d="M55.719 26.183l-1.847 1.007c.504.839.672 1.678.672 2.853v6.545h2.685v-7.552h3.357l.335-2.686c-1.342.168-2.853.336-4.531.84l-.671-1.007zM83.411 26.35h-2.685v7.552c-1.343 1.175-3.86 1.343-3.86-1.343v-6.21H74.18v6.378c0 2.014.84 3.357 2.014 3.86 2.182.84 4.532-.335 5.203-.839l1.007 1.007 1.846-1.175c-.67-1.007-.839-1.678-.839-3.02v-6.21zM47.665 35.075c2.853 0 5.37-1.846 5.37-4.363 0-1.51-.67-2.518-1.678-3.357l1.175-1.51-1.175-1.175-2.35 1.678c-.335 0-.838-.168-1.174-.168-2.853 0-5.203 1.51-5.203 4.364 0 1.678.84 3.021 2.35 3.692l-2.182 2.182 1.343 2.35c.839-.168 6.88-1.343 6.21 1.175l2.181.503c.168-.335.336-1.175.336-1.678 0-3.525-5.37-2.35-6.713-2.182l-.168-.168 1.007-1.343h.671zm.168-6.88c1.343 0 2.517 1.174 2.517 2.517 0 1.342-1.174 2.517-2.517 2.517s-2.517-1.175-2.517-2.517c0-1.51 1.006-2.518 2.517-2.518zM66.963 26.182c-3.02-.168-5.37 1.846-5.538 4.867-.168 3.189 1.846 5.874 5.538 5.874 3.693 0 5.707-2.685 5.539-5.874-.168-3.19-2.35-4.867-5.539-4.867zm2.686 5.37c0 1.679-.672 3.525-2.686 3.525s-2.685-1.846-2.685-3.357c0-1.846.503-3.692 2.685-3.692 2.182-.168 2.853 1.678 2.686 3.524zM88.106 27.022l-1.007-.84-1.846 1.175c.503.84.67 1.679.67 2.686v10.741h2.518l.168-4.028c.672.336 1.343.504 2.014.504 3.357 0 5.37-2.686 5.37-5.371.169-5.203-4.195-6.881-7.887-4.867zm5.203 4.867c-.168 2.685-2.518 4.028-4.7 2.517v-5.37c2.518-1.679 4.867.168 4.7 2.853z"/><path fill="#CD2C2C" d="M28.866 0l-19.3 19.133h2.35c3.524 0 5.034 1.007 6.041 2.014 1.007 1.007 1.51 2.182 1.51 3.86v6.21c0 .671 0 1.175.168 1.51.168.672 1.51 2.853 1.51 2.853l-2.852 2.014-2.35-2.014c-.503.336-1.846 1.007-2.517 1.175-1.175.504-2.35.504-2.853.504-1.007 0-2.182-.168-3.357-.84-1.174-.67-2.685-2.181-2.685-4.699 0-4.867 4.867-5.37 7.552-5.37h3.021v-1.175c0-1.175-.503-1.678-1.175-2.182-.67-.336-2.014-.503-3.188-.503H6.377L0 28.866V48h19.132l11.58-11.58h-4.7L20.308 19.3h5.202l4.196 13.595h.336l4.195-13.594h5.203l-4.196 12.755 12.923-12.923V0h-19.3zM8.895 31.552c0 .84.503 1.847 1.342 2.182 1.678.84 4.196-.335 4.867-.839v-3.692h-2.853c-3.02 0-3.356 1.51-3.356 2.35z"/></svg>