<?xml version="1.0" standalone="no"?>
<!DOCTYPE svg PUBLIC "-//W3C//DTD SVG 20010904//EN"
 "http://www.w3.org/TR/2001/REC-SVG-20010904/DTD/svg10.dtd">
<svg version="1.0" xmlns="http://www.w3.org/2000/svg"
 width="600.000000pt" height="600.000000pt" viewBox="0 0 640.000000 640.000000"
 preserveAspectRatio="xMidYMid meet">

<g transform="translate(0.000000,640.000000) scale(0.100000,-0.100000)"
fill="#cd2c2c" stroke="none">
<path d="M0 3200 l0 -3200 3200 0 3200 0 0 3200 0 3200 -3200 0 -3200 0 0
-3200z m1202 663 c8 -10 79 -146 158 -303 313 -626 370 -739 378 -744 4 -3 22
21 40 52 17 31 40 68 51 82 l20 25 43 -21 c24 -12 73 -27 110 -34 56 -11 72
-11 105 1 64 25 76 85 22 115 -13 7 -58 16 -100 19 l-75 6 -2 70 c-4 104 -3
105 79 113 49 5 76 13 90 27 26 26 24 64 -3 83 -29 21 -120 20 -173 0 -73 -29
-88 -28 -111 3 -11 15 -31 48 -45 71 l-24 44 25 20 c75 61 192 92 315 85 102
-6 133 -15 190 -55 110 -77 127 -255 32 -332 l-21 -18 46 -44 c55 -54 72 -101
65 -178 -11 -124 -88 -199 -241 -234 -117 -28 -220 -16 -338 36 -66 30 -69 30
-89 13 -22 -21 -235 -77 -261 -69 -9 3 -34 48 -59 105 -23 54 -48 104 -54 109
-8 7 -87 9 -206 8 l-194 -3 -20 -41 c-11 -22 -33 -70 -49 -107 -16 -36 -35
-68 -43 -71 -7 -3 -57 5 -111 18 -53 14 -109 27 -124 30 -16 4 -28 13 -28 22
0 9 39 91 86 182 195 376 231 446 329 637 87 170 130 251 152 288 7 12 19 8
35 -10z m2011 -315 c9 -65 2 -787 -8 -797 -5 -5 -59 -15 -118 -22 -93 -11
-110 -11 -118 2 -5 8 -9 87 -9 177 0 172 -3 182 -44 140 -18 -19 -196 -187
-350 -331 -16 -15 -34 -26 -40 -24 -11 4 -22 780 -11 824 4 16 17 24 55 32 58
12 190 15 190 4 1 -5 1 -74 2 -155 0 -154 5 -201 19 -196 5 2 67 59 140 128
219 209 264 249 275 250 7 0 14 -15 17 -32z m875 -75 c13 -49 27 -104 31 -123
8 -34 61 -239 122 -468 17 -63 28 -119 26 -126 -5 -11 -149 -36 -210 -36 -36
0 -45 21 -68 153 -11 62 -23 127 -26 145 -3 18 -9 34 -13 37 -4 2 -45 -71 -92
-163 -46 -92 -90 -167 -98 -167 -7 0 -47 69 -89 153 -75 147 -95 181 -105 171
-3 -3 -16 -74 -30 -158 -14 -85 -29 -158 -35 -164 -11 -11 -220 9 -235 23 -5
5 4 57 22 122 17 62 36 138 43 168 6 30 18 75 25 100 14 44 58 210 90 340 30
118 47 118 108 3 147 -278 198 -366 211 -366 5 1 23 28 40 61 16 32 35 66 41
73 6 8 28 46 49 84 71 131 129 230 139 237 18 12 29 -8 54 -99z m390 99 c7 -5
21 -33 32 -63 51 -143 147 -364 159 -364 8 0 27 34 43 75 17 41 34 79 39 85 5
5 9 16 9 25 0 8 16 45 34 82 19 36 39 82 46 102 20 62 27 65 124 46 69 -14
146 -37 146 -44 0 -10 -52 -134 -90 -211 -26 -55 -57 -120 -68 -145 -17 -38
-72 -156 -137 -295 -8 -16 -33 -70 -56 -120 -39 -86 -56 -124 -109 -242 -13
-29 -29 -54 -37 -57 -12 -5 -68 1 -205 20 -27 4 -48 12 -48 19 0 7 38 87 85
179 l86 168 -29 61 c-16 34 -42 91 -57 127 -15 36 -45 102 -66 147 -22 45 -39
85 -39 88 0 7 -25 63 -77 173 -37 79 -37 99 -1 106 13 3 59 14 103 25 95 23
96 23 113 13z m1221 -26 c8 -9 11 -50 9 -117 l-3 -104 -80 -5 -80 -5 -5 -285
c-3 -157 -7 -285 -8 -286 -28 -8 -215 -25 -226 -21 -14 6 -16 41 -16 282 0
151 1 277 3 278 1 2 -4 11 -12 20 -11 13 -32 17 -99 17 l-85 0 6 45 c8 58 47
178 61 187 6 4 126 8 267 8 208 0 259 -3 268 -14z"/>
<path d="M1139 3303 c-16 -37 -37 -82 -45 -99 -9 -18 -13 -38 -9 -43 10 -17
174 -14 181 2 5 14 -80 207 -91 207 -3 0 -19 -30 -36 -67z"/>
</g>
</svg>
