<svg xmlns="http://www.w3.org/2000/svg" width="38" height="41" fill="none" viewBox="0 0 38 41"><path fill="#E8E7E7" d="M12.403 25.867H0v14.415h12.403V25.867z"/><path stroke="#CD2C2C" stroke-miterlimit="10" d="M9.956 37.407H30.76V24.26"/><path stroke="#CD2C2C" stroke-miterlimit="10" d="M30.76 14.406V1H3.134v36.407H9.957"/><path fill="#E8E7E7" d="M27.321 4.992H6.846v2.726H27.32V4.992zM27.321 10.443H6.846v2.726H27.32v-2.726zM15.098 15.902H6.846v2.725h8.252v-2.725zM30.55 16.535L13.946 25.31l2.294 4.41 16.605-8.774-2.293-4.41zM34.706 14.34l-3.094 1.635 2.294 4.41L37 18.75l-2.294-4.41z"/><path fill="#fff" d="M12.88 25.867l2.297 4.411-6.385.56 4.087-4.971z"/><path stroke="#CD2C2C" stroke-miterlimit="10" d="M8.792 30.837l4.087-4.97 21.828-11.532 2.29 4.411-3.087 1.63"/></svg>